<svg version="1.1" xmlns="http://www.w3.org/2000/svg" viewBox="0 0 627.7681039568394 456.590171001269" width="627.7681039568394" height="456.590171001269" class="excalidraw-svg">
  <!-- svg-source:excalidraw -->
  
  <defs>
    <style class="style-fonts">
      
    </style>
    
  </defs>
  <g transform="translate(84.69525314574787 169.7908100659129) rotate(0 -8.774444610786375 48.034445956064474)" stroke="none"><path fill="#1e1e1e" d="M -4.35,0.56 Q -4.35,0.56 -4.77,-2.39 -5.20,-5.36 -6.00,-8.12 -6.81,-10.87 -8.47,-15.15 -10.13,-19.44 -11.76,-22.92 -13.39,-26.41 -14.93,-28.84 -16.46,-31.27 -18.38,-33.43 -20.29,-35.59 -22.28,-37.30 -24.27,-39.00 -26.43,-40.35 -28.60,-41.70 -30.85,-42.77 -33.10,-43.84 -35.33,-44.35 -37.57,-44.86 -40.59,-45.01 -43.62,-45.16 -45.57,-44.32 -47.52,-43.47 -50.15,-40.40 -52.79,-37.33 -54.53,-34.40 -56.27,-31.47 -58.39,-26.14 -60.52,-20.81 -62.49,-13.27 -64.45,-5.72 -65.81,1.14 -67.18,8.02 -68.13,13.52 -69.09,19.03 -69.85,26.09 -70.60,33.14 -70.95,40.23 -71.30,47.32 -71.40,52.46 -71.51,57.61 -71.05,63.03 -70.60,68.46 -68.96,75.62 -67.31,82.78 -65.99,87.25 -64.66,91.71 -63.03,95.72 -61.41,99.74 -59.62,102.80 -57.83,105.86 -55.71,109.06 -53.58,112.25 -51.57,114.57 -49.57,116.88 -47.15,119.16 -44.73,121.45 -41.77,123.75 -38.81,126.06 -34.62,128.83 -30.42,131.60 -26.85,133.70 -23.28,135.80 -19.34,137.64 -15.41,139.48 -10.18,140.53 -4.94,141.58 -1.50,142.06 1.93,142.53 4.78,142.60 7.62,142.67 9.91,142.58 12.21,142.50 15.76,141.31 19.32,140.11 23.80,137.77 28.28,135.42 31.47,133.36 34.67,131.29 36.92,129.17 39.17,127.05 42.95,121.61 46.72,116.18 48.04,113.45 49.36,110.72 50.04,108.58 50.72,106.44 51.19,103.77 51.66,101.09 51.83,96.87 52.00,92.64 51.81,88.87 51.62,85.11 50.28,80.25 48.94,75.40 48.01,73.37 47.09,71.34 46.03,68.99 44.98,66.64 43.51,64.14 42.04,61.65 40.73,59.96 39.42,58.28 37.57,56.82 35.72,55.36 33.48,53.98 31.25,52.61 26.58,50.92 21.91,49.23 19.54,48.80 17.17,48.36 12.72,48.16 8.26,47.97 5.19,48.09 2.12,48.20 -0.82,49.49 -3.76,50.77 -5.20,52.37 -6.64,53.96 -7.85,55.72 -9.07,57.49 -10.59,60.12 -12.11,62.75 -13.01,64.79 -13.90,66.83 -14.35,68.19 -14.80,69.56 -15.22,70.52 -15.63,71.49 -16.33,72.27 -17.03,73.05 -17.94,73.57 -18.86,74.08 -19.89,74.28 -20.92,74.48 -21.96,74.34 -23.00,74.20 -23.94,73.74 -24.88,73.27 -25.63,72.53 -26.37,71.79 -26.84,70.85 -27.30,69.91 -27.45,68.86 -27.59,67.82 -27.39,66.79 -27.20,65.76 -26.68,64.85 -26.16,63.93 -25.38,63.23 -24.60,62.53 -23.64,62.11 -22.67,61.70 -21.63,61.61 -20.58,61.53 -19.56,61.78 -18.54,62.03 -17.66,62.60 -16.77,63.16 -16.11,63.98 -15.45,64.80 -15.09,65.78 -14.73,66.77 -14.70,67.82 -14.67,68.87 -14.98,69.87 -15.28,70.87 -15.90,71.73 -16.51,72.58 -17.36,73.19 -18.21,73.81 -19.22,74.12 -20.22,74.43 -21.27,74.40 -22.32,74.37 -23.31,74.01 -24.29,73.65 -25.11,72.99 -25.93,72.33 -26.50,71.45 -27.06,70.56 -27.32,69.54 -27.57,68.53 -27.49,67.48 -27.40,66.43 -27.40,66.43 -27.40,66.43 -26.07,62.94 -24.74,59.45 -23.33,56.91 -21.91,54.37 -20.33,52.14 -18.74,49.90 -17.20,48.04 -15.66,46.18 -12.67,43.54 -9.69,40.91 -7.08,39.51 -4.47,38.11 -1.11,37.72 2.24,37.33 5.42,37.56 8.60,37.79 11.60,37.90 14.61,38.00 16.88,38.34 19.16,38.68 21.89,39.29 24.62,39.90 30.61,41.81 36.59,43.73 39.45,45.43 42.32,47.13 44.84,49.86 47.37,52.58 48.76,54.68 50.16,56.78 52.01,59.82 53.86,62.87 54.85,65.33 55.84,67.80 56.66,70.10 57.49,72.41 58.82,76.12 60.15,79.83 60.31,81.96 60.46,84.08 61.23,88.54 61.99,93.00 61.49,97.89 60.99,102.78 60.36,106.22 59.72,109.67 58.72,112.18 57.73,114.69 56.30,117.74 54.88,120.78 52.47,125.68 50.06,130.58 48.26,132.72 46.46,134.86 43.18,137.34 39.91,139.82 36.10,141.77 32.30,143.73 29.65,144.98 27.00,146.23 24.62,147.26 22.24,148.28 17.05,149.19 11.86,150.10 9.45,149.80 7.03,149.50 3.95,149.05 0.88,148.61 -2.59,147.88 -6.06,147.15 -11.93,145.98 -17.79,144.80 -22.03,142.93 -26.26,141.06 -30.03,138.99 -33.80,136.92 -38.35,134.15 -42.90,131.37 -46.22,128.84 -49.54,126.31 -52.14,123.62 -54.75,120.93 -56.65,118.22 -58.56,115.51 -60.76,112.07 -62.97,108.63 -64.68,105.20 -66.40,101.77 -68.13,97.53 -69.87,93.28 -71.28,88.65 -72.68,84.02 -74.44,76.49 -76.19,68.96 -76.72,63.25 -77.25,57.54 -77.24,52.31 -77.22,47.08 -76.99,39.82 -76.76,32.55 -76.15,25.30 -75.55,18.05 -74.81,12.43 -74.08,6.81 -72.99,-0.32 -71.91,-7.46 -70.24,-15.53 -68.57,-23.60 -66.71,-29.75 -64.86,-35.91 -63.01,-39.91 -61.16,-43.91 -59.21,-46.31 -57.27,-48.71 -54.53,-51.00 -51.78,-53.29 -49.14,-54.20 -46.50,-55.12 -42.94,-54.91 -39.37,-54.71 -37.25,-54.23 -35.12,-53.76 -32.05,-52.80 -28.99,-51.85 -26.36,-50.39 -23.74,-48.94 -21.14,-47.08 -18.54,-45.21 -16.31,-43.02 -14.08,-40.82 -11.85,-38.06 -9.63,-35.29 -8.13,-32.53 -6.62,-29.77 -4.75,-26.22 -2.87,-22.66 -0.56,-17.99 1.75,-13.32 2.70,-9.93 3.64,-6.53 4.00,-3.55 4.35,-0.56 4.36,-0.03 4.36,0.49 4.24,1.00 4.12,1.52 3.88,1.99 3.63,2.46 3.29,2.86 2.94,3.26 2.51,3.56 2.07,3.87 1.58,4.06 1.08,4.25 0.56,4.32 0.03,4.39 -0.48,4.33 -1.01,4.27 -1.51,4.09 -2.00,3.91 -2.44,3.61 -2.88,3.31 -3.24,2.92 -3.59,2.52 -3.84,2.06 -4.09,1.59 -4.22,1.08 -4.35,0.56 -4.35,0.56 L -4.35,0.56 Z"></path></g><g transform="translate(79.29559360333744 212.76306983689116) rotate(0 2.249856712250633 -23.51099577700137)" stroke="none"><path fill="#1e1e1e" d="M -4.83,-2.11 Q -4.83,-2.11 -3.96,-4.20 -3.09,-6.28 -2.53,-9.24 -1.97,-12.20 -1.71,-14.41 -1.45,-16.63 -1.40,-19.66 -1.35,-22.69 -1.47,-25.52 -1.59,-28.35 -1.66,-30.75 -1.72,-33.14 -1.97,-35.99 -2.21,-38.83 -3.29,-41.96 -4.36,-45.09 -4.49,-46.13 -4.62,-47.16 -4.41,-48.19 -4.20,-49.21 -3.67,-50.11 -3.15,-51.02 -2.36,-51.71 -1.58,-52.40 -0.61,-52.80 0.34,-53.20 1.39,-53.27 2.43,-53.34 3.44,-53.08 4.45,-52.81 5.33,-52.24 6.20,-51.66 6.85,-50.84 7.49,-50.02 7.84,-49.03 8.19,-48.05 8.20,-47.00 8.22,-45.96 7.90,-44.96 7.58,-43.97 6.96,-43.12 6.34,-42.28 5.48,-41.68 4.63,-41.08 3.62,-40.79 2.62,-40.50 1.57,-40.54 0.53,-40.58 -0.44,-40.95 -1.41,-41.32 -2.22,-41.99 -3.03,-42.65 -3.58,-43.54 -4.13,-44.43 -4.37,-45.45 -4.61,-46.46 -4.51,-47.51 -4.41,-48.55 -3.99,-49.50 -3.56,-50.46 -2.86,-51.23 -2.15,-51.99 -1.23,-52.50 -0.32,-53.00 0.70,-53.18 1.73,-53.37 2.77,-53.21 3.80,-53.06 4.73,-52.58 5.66,-52.11 6.39,-51.36 7.12,-50.61 7.57,-49.67 8.03,-48.73 8.03,-48.73 8.03,-48.73 8.76,-46.68 9.49,-44.64 9.91,-42.44 10.32,-40.24 10.52,-36.69 10.72,-33.14 10.60,-29.92 10.48,-26.71 10.34,-24.48 10.20,-22.25 9.89,-18.74 9.58,-15.23 9.26,-12.83 8.94,-10.43 7.83,-6.21 6.72,-1.99 5.77,0.06 4.83,2.11 4.50,2.66 4.18,3.20 3.74,3.66 3.29,4.11 2.75,4.45 2.21,4.78 1.61,4.98 1.00,5.17 0.37,5.22 -0.26,5.26 -0.89,5.16 -1.51,5.05 -2.09,4.79 -2.68,4.54 -3.18,4.15 -3.69,3.76 -4.08,3.27 -4.48,2.77 -4.75,2.19 -5.02,1.62 -5.14,0.99 -5.26,0.37 -5.23,-0.26 -5.19,-0.89 -5.01,-1.50 -4.83,-2.11 -4.83,-2.11 L -4.83,-2.11 Z"></path></g><g transform="translate(85.37019986039638 168.21591723335524) rotate(0 39.4849921660165 -37.7975953405674)" stroke="none"><path fill="#1e1e1e" d="M -4.42,0 Q -4.42,0 -4.36,-3.49 -4.31,-6.98 -4.09,-11.51 -3.86,-16.03 -3.71,-20.22 -3.56,-24.40 -3.44,-28.90 -3.31,-33.40 -3.44,-36.54 -3.56,-39.68 -3.74,-41.98 -3.92,-44.29 -3.86,-46.74 -3.81,-49.19 -3.64,-51.71 -3.47,-54.24 -3.01,-57.53 -2.55,-60.83 -1.86,-63.09 -1.17,-65.35 0.26,-67.78 1.70,-70.21 3.69,-71.83 5.67,-73.44 8.25,-74.80 10.82,-76.16 13.35,-76.93 15.88,-77.69 18.67,-78.31 21.47,-78.92 24.69,-79.55 27.92,-80.18 30.68,-80.58 33.44,-80.97 36.34,-81.28 39.24,-81.58 42.92,-81.82 46.60,-82.07 50.43,-82.12 54.27,-82.17 57.53,-82.16 60.80,-82.16 64.76,-81.22 68.73,-80.28 71.85,-78.60 74.98,-76.93 77.14,-75.47 79.31,-74.01 80.80,-73.01 82.30,-72.01 83.12,-71.30 83.95,-70.58 84.50,-69.64 85.05,-68.70 85.27,-67.63 85.49,-66.56 85.36,-65.47 85.23,-64.39 84.76,-63.40 84.29,-62.42 83.53,-61.64 82.77,-60.85 81.80,-60.35 80.82,-59.85 79.74,-59.69 78.67,-59.53 77.59,-59.72 76.51,-59.91 75.56,-60.43 74.60,-60.95 73.86,-61.75 73.12,-62.56 72.67,-63.55 72.22,-64.55 72.12,-65.64 72.01,-66.72 72.26,-67.79 72.51,-68.85 73.09,-69.78 73.66,-70.71 74.50,-71.40 75.34,-72.10 76.36,-72.49 77.38,-72.88 78.47,-72.93 79.56,-72.97 80.61,-72.67 81.66,-72.36 82.55,-71.74 83.45,-71.12 84.10,-70.24 84.75,-69.36 85.09,-68.32 85.42,-67.28 85.41,-66.19 85.39,-65.10 85.03,-64.07 84.67,-63.04 84.00,-62.18 83.33,-61.32 82.42,-60.72 81.51,-60.11 80.45,-59.84 79.39,-59.56 78.30,-59.63 77.22,-59.70 76.21,-60.12 75.20,-60.54 75.20,-60.54 75.20,-60.53 72.57,-62.40 69.95,-64.26 68.09,-65.46 66.22,-66.66 63.51,-67.84 60.79,-69.01 57.61,-68.98 54.44,-68.95 50.90,-68.85 47.36,-68.74 44.20,-68.46 41.04,-68.19 38.26,-67.92 35.48,-67.66 31.85,-67.19 28.23,-66.72 26.01,-66.34 23.79,-65.97 21.24,-65.59 18.68,-65.22 15.92,-64.55 13.16,-63.89 11.15,-62.83 9.14,-61.78 8.01,-59.88 6.87,-57.99 6.11,-55.61 5.35,-53.24 4.63,-48.76 3.92,-44.28 3.74,-41.98 3.56,-39.68 3.44,-36.54 3.31,-33.40 3.44,-28.90 3.56,-24.40 3.71,-20.22 3.86,-16.03 4.09,-11.51 4.31,-6.98 4.36,-3.49 4.42,0 4.35,0.52 4.29,1.05 4.10,1.55 3.91,2.05 3.61,2.49 3.30,2.93 2.90,3.28 2.51,3.63 2.03,3.88 1.56,4.13 1.04,4.26 0.53,4.38 -0.00,4.38 -0.53,4.38 -1.05,4.26 -1.56,4.13 -2.03,3.88 -2.51,3.63 -2.91,3.28 -3.30,2.93 -3.61,2.49 -3.91,2.05 -4.10,1.55 -4.29,1.05 -4.35,0.52 -4.42,-0.00 -4.42,-0.00 L -4.42,0 Z"></path></g><g transform="translate(164.34018419242938 102.07012646017756) rotate(0 6.637070435121586 43.984697007995536)" stroke="none"><path fill="#1e1e1e" d="M 1.93,-4.99 Q 1.93,-4.99 3.96,-4.25 5.98,-3.51 7.95,-2.44 9.92,-1.36 12.46,0.94 15.01,3.25 16.93,6.52 18.85,9.80 19.77,11.98 20.69,14.17 21.36,18.16 22.03,22.14 22.24,24.32 22.45,26.50 22.56,28.70 22.67,30.90 22.77,34.52 22.86,38.13 22.74,42.19 22.62,46.25 22.33,48.66 22.03,51.08 21.45,53.70 20.87,56.32 19.71,59.96 18.56,63.59 16.23,68.14 13.89,72.68 12.15,75.40 10.40,78.12 9.29,80.04 8.18,81.96 6.31,84.75 4.45,87.54 2.72,89.83 0.98,92.12 0.19,92.70 -0.58,93.27 -1.51,93.56 -2.44,93.86 -3.42,93.84 -4.39,93.82 -5.31,93.49 -6.23,93.15 -6.99,92.55 -7.76,91.94 -8.29,91.13 -8.82,90.31 -9.06,89.36 -9.30,88.42 -9.23,87.45 -9.15,86.47 -8.77,85.58 -8.39,84.68 -7.75,83.95 -7.10,83.22 -6.26,82.73 -5.41,82.25 -4.45,82.06 -3.50,81.87 -2.53,81.99 -1.56,82.12 -0.69,82.55 0.18,82.97 0.87,83.66 1.57,84.34 2.00,85.21 2.44,86.08 2.58,87.05 2.72,88.01 2.54,88.97 2.36,89.93 1.89,90.78 1.41,91.64 0.69,92.29 -0.02,92.95 -0.91,93.34 -1.80,93.73 -2.78,93.81 -3.75,93.90 -4.69,93.67 -5.64,93.44 -6.47,92.92 -7.29,92.40 -7.91,91.64 -8.52,90.89 -8.87,89.98 -9.21,89.06 -9.24,88.09 -9.27,87.11 -8.99,86.18 -8.71,85.25 -8.15,84.45 -7.58,83.66 -7.58,83.66 -7.59,83.66 -6.19,81.91 -4.79,80.16 -3.25,78.16 -1.71,76.16 -0.57,74.24 0.56,72.33 1.96,69.68 3.37,67.03 4.53,64.61 5.70,62.20 6.83,59.40 7.97,56.61 8.85,53.17 9.74,49.73 10.05,45.80 10.37,41.87 10.36,38.25 10.35,34.63 10.25,31.23 10.15,27.82 9.90,25.66 9.65,23.50 9.08,20.07 8.52,16.65 7.40,13.82 6.29,10.98 4.16,8.80 2.03,6.62 0.04,5.80 -1.93,4.99 -2.50,4.69 -3.07,4.38 -3.55,3.95 -4.03,3.52 -4.39,2.99 -4.75,2.45 -4.98,1.85 -5.20,1.24 -5.28,0.60 -5.35,-0.03 -5.27,-0.67 -5.19,-1.31 -4.95,-1.91 -4.72,-2.52 -4.35,-3.05 -3.98,-3.57 -3.49,-4.00 -3.01,-4.42 -2.43,-4.72 -1.86,-5.02 -1.23,-5.17 -0.60,-5.32 0.03,-5.31 0.68,-5.31 1.30,-5.15 1.93,-4.99 1.93,-4.99 L 1.93,-4.99 Z"></path></g><g transform="translate(160.96539912405342 190.03952047616863) rotate(0 0.00005000000000165983 0.00005000000000165983)" stroke="none"><path fill="#1e1e1e" d="M 3.14,-3.14 Q 3.14,-3.14 3.55,-2.55 3.97,-1.97 4.18,-1.28 4.40,-0.59 4.38,0.11 4.36,0.83 4.11,1.51 3.86,2.18 3.41,2.74 2.96,3.30 2.36,3.69 1.75,4.07 1.05,4.25 0.36,4.42 -0.35,4.36 -1.07,4.30 -1.73,4.02 -2.39,3.74 -2.92,3.26 -3.46,2.78 -3.81,2.15 -4.16,1.53 -4.30,0.82 -4.43,0.11 -4.34,-0.59 -4.24,-1.30 -3.92,-1.94 -3.60,-2.59 -3.09,-3.09 -2.59,-3.60 -1.94,-3.92 -1.30,-4.24 -0.59,-4.34 0.12,-4.43 0.82,-4.30 1.53,-4.16 2.15,-3.81 2.78,-3.46 3.26,-2.92 3.74,-2.39 4.02,-1.73 4.31,-1.07 4.36,-0.35 4.42,0.36 4.25,1.05 4.07,1.75 3.69,2.36 3.30,2.96 2.74,3.41 2.18,3.86 1.51,4.11 0.83,4.36 0.11,4.38 -0.60,4.40 -1.28,4.18 -1.97,3.97 -2.55,3.55 -3.14,3.13 -3.14,3.14 -3.14,3.14 -3.47,2.71 -3.80,2.29 -4.02,1.80 -4.24,1.32 -4.33,0.79 -4.43,0.26 -4.40,-0.26 -4.36,-0.80 -4.20,-1.31 -4.04,-1.82 -3.77,-2.28 -3.49,-2.73 -3.11,-3.11 -2.73,-3.49 -2.28,-3.77 -1.82,-4.05 -1.31,-4.20 -0.80,-4.36 -0.26,-4.40 0.26,-4.43 0.79,-4.33 1.32,-4.24 1.80,-4.02 2.29,-3.80 2.71,-3.47 3.14,-3.14 3.14,-3.14 L 3.14,-3.14 Z"></path></g><g transform="translate(162.99025643304338 191.3894310705101) rotate(0 20.136210708625427 60.74613981328949)" stroke="none"><path fill="#1e1e1e" d="M 2.22,-3.92 Q 2.22,-3.92 4.64,-2.61 7.06,-1.30 9.27,-0.14 11.48,1.00 13.69,2.30 15.91,3.59 17.72,4.87 19.53,6.15 21.56,8.29 23.59,10.44 25.62,13.27 27.66,16.11 29.76,19.10 31.86,22.08 33.81,24.91 35.75,27.75 37.70,30.82 39.64,33.89 41.55,37.22 43.45,40.56 45.34,44.75 47.22,48.93 48.75,51.97 50.29,55.00 51.47,57.26 52.65,59.52 53.78,61.82 54.91,64.11 56.00,67.36 57.09,70.60 57.98,73.36 58.87,76.13 59.56,79.21 60.24,82.30 60.61,85.05 60.98,87.80 61.36,90.94 61.74,94.08 61.31,97.99 60.88,101.90 59.22,105.90 57.56,109.91 55.35,112.57 53.15,115.23 50.53,118.12 47.92,121.01 44.87,123.00 41.82,124.98 39.78,125.67 37.74,126.36 35.25,126.72 32.77,127.09 30.53,127.22 28.29,127.36 24.97,127.36 21.65,127.35 18.34,126.27 15.04,125.19 12.35,123.21 9.67,121.23 8.17,119.65 6.68,118.08 5.26,116.44 3.84,114.80 1.69,112.46 -0.46,110.13 -2.26,107.94 -4.07,105.75 -6.17,101.96 -8.26,98.17 -9.61,95.33 -10.95,92.50 -12.02,90.34 -13.08,88.19 -14.38,85.82 -15.69,83.44 -16.75,80.83 -17.81,78.22 -18.83,75.97 -19.85,73.71 -20.13,73.01 -20.41,72.31 -20.74,71.53 -21.07,70.74 -21.20,69.90 -21.33,69.06 -21.26,68.21 -21.19,67.36 -20.91,66.55 -20.64,65.74 -20.18,65.03 -19.72,64.31 -19.11,63.72 -18.49,63.13 -17.75,62.71 -17.01,62.29 -16.19,62.05 -15.37,61.82 -14.52,61.79 -13.67,61.76 -12.83,61.93 -12.00,62.11 -11.23,62.48 -10.46,62.85 -9.80,63.39 -9.15,63.93 -8.64,64.61 -8.13,65.30 -7.72,67.77 -7.31,70.24 -7.37,72.57 -7.44,74.90 -8.02,77.23 -8.61,79.57 -8.88,82.47 -9.15,85.36 -9.40,86.51 -9.65,87.66 -10.26,88.67 -10.86,89.67 -11.75,90.44 -12.65,91.20 -13.74,91.64 -14.83,92.07 -16.01,92.14 -17.18,92.20 -18.31,91.89 -19.45,91.58 -20.42,90.92 -21.39,90.26 -22.11,89.32 -22.82,88.39 -23.20,87.28 -23.57,86.16 -23.57,84.99 -23.58,83.81 -23.20,82.70 -22.83,81.58 -22.12,80.65 -21.41,79.71 -20.43,79.05 -19.46,78.39 -18.33,78.07 -17.20,77.76 -16.02,77.82 -14.85,77.88 -13.76,78.31 -12.67,78.75 -11.77,79.51 -10.87,80.27 -10.26,81.27 -9.66,82.28 -9.40,83.43 -9.15,84.58 -9.28,85.75 -9.40,86.91 -9.89,87.98 -10.39,89.05 -11.19,89.90 -12.00,90.76 -13.04,91.31 -14.08,91.86 -15.24,92.05 -16.40,92.24 -17.56,92.06 -18.72,91.87 -19.76,91.32 -20.79,90.77 -21.60,89.91 -22.41,89.06 -22.91,88.00 -23.40,86.93 -23.53,85.76 -23.66,84.59 -23.66,84.59 -23.66,84.60 -23.23,80.87 -22.81,77.14 -21.61,74.73 -20.41,72.31 -20.74,71.53 -21.07,70.74 -21.20,69.90 -21.33,69.06 -21.26,68.21 -21.19,67.36 -20.91,66.55 -20.64,65.75 -20.18,65.03 -19.72,64.31 -19.11,63.72 -18.49,63.13 -17.75,62.71 -17.01,62.29 -16.19,62.05 -15.37,61.82 -14.52,61.79 -13.67,61.76 -12.83,61.93 -12.00,62.11 -11.23,62.48 -10.46,62.85 -9.80,63.39 -9.15,63.93 -8.64,64.61 -8.13,65.30 -7.36,67.31 -6.59,69.32 -5.56,72.03 -4.53,74.73 -3.50,77.56 -2.48,80.38 -1.42,82.35 -0.37,84.32 0.81,86.93 2.01,89.55 3.41,92.63 4.81,95.71 6.78,98.49 8.75,101.27 10.34,102.90 11.92,104.52 14.04,106.95 16.16,109.37 18.04,111.25 19.91,113.12 22.09,114.22 24.27,115.32 27.76,115.22 31.24,115.12 33.88,114.74 36.53,114.35 38.45,113.38 40.37,112.41 42.49,110.36 44.62,108.32 46.16,106.36 47.69,104.40 49.05,101.73 50.41,99.07 50.96,96.77 51.51,94.47 51.57,91.61 51.64,88.75 51.49,86.45 51.35,84.15 50.82,81.43 50.29,78.71 49.54,76.03 48.80,73.35 47.86,70.48 46.92,67.61 46.02,65.27 45.11,62.93 44.25,60.66 43.38,58.40 41.93,55.36 40.48,52.33 38.39,48.61 36.29,44.90 34.31,41.83 32.33,38.77 30.31,35.89 28.29,33.02 26.38,30.40 24.47,27.78 22.07,24.93 19.68,22.07 17.82,19.70 15.96,17.33 13.35,14.62 10.74,11.91 8.78,10.62 6.81,9.32 4.66,8.03 2.50,6.73 0.13,5.33 -2.22,3.92 -2.66,3.60 -3.10,3.27 -3.44,2.85 -3.79,2.43 -4.03,1.94 -4.26,1.46 -4.38,0.92 -4.49,0.39 -4.47,-0.14 -4.45,-0.69 -4.31,-1.21 -4.16,-1.73 -3.89,-2.21 -3.62,-2.68 -3.25,-3.07 -2.87,-3.47 -2.42,-3.76 -1.96,-4.06 -1.44,-4.23 -0.93,-4.41 -0.39,-4.46 0.14,-4.50 0.68,-4.42 1.22,-4.34 1.72,-4.13 2.22,-3.92 2.22,-3.92 L 2.22,-3.92 Z"></path></g><g transform="translate(125.64263844269169 135.81797714393713) rotate(0 -10.574328264082453 17.54888063905053)" stroke="none"><path fill="#1e1e1e" d="M 3.36,3.92 Q 3.36,3.92 1.57,5.50 -0.21,7.08 -2.09,9.40 -3.97,11.72 -5.97,15.19 -7.97,18.66 -8.93,20.82 -9.88,22.98 -10.83,25.13 -11.79,27.28 -12.84,30.16 -13.89,33.05 -14.73,34.80 -15.57,36.56 -15.96,37.41 -16.36,38.25 -17.00,38.93 -17.64,39.60 -18.47,40.03 -19.29,40.47 -20.21,40.62 -21.13,40.77 -22.05,40.61 -22.97,40.46 -23.80,40.02 -24.62,39.58 -25.26,38.90 -25.90,38.22 -26.29,37.38 -26.68,36.53 -26.77,35.60 -26.87,34.67 -26.67,33.76 -26.47,32.85 -25.98,32.06 -25.50,31.26 -24.79,30.66 -24.07,30.06 -23.21,29.71 -22.34,29.37 -21.41,29.32 -20.48,29.28 -19.58,29.53 -18.68,29.78 -17.91,30.31 -17.14,30.83 -16.58,31.58 -16.02,32.32 -15.72,33.20 -15.43,34.09 -15.43,35.02 -15.43,35.95 -15.73,36.83 -16.04,37.72 -16.60,38.46 -17.17,39.20 -17.94,39.72 -18.71,40.24 -19.61,40.49 -20.51,40.73 -21.44,40.68 -22.37,40.63 -23.24,40.28 -24.10,39.93 -24.81,39.33 -25.52,38.72 -26.00,37.92 -26.48,37.12 -26.68,36.21 -26.87,35.30 -26.77,34.37 -26.67,33.44 -26.67,33.45 -26.67,33.45 -25.60,31.08 -24.54,28.71 -23.17,25.71 -21.80,22.72 -20.84,20.65 -19.87,18.58 -18.73,15.99 -17.59,13.40 -15.11,9.22 -12.64,5.03 -9.83,2.08 -7.03,-0.87 -5.19,-2.39 -3.36,-3.92 -2.84,-4.26 -2.32,-4.61 -1.73,-4.82 -1.15,-5.03 -0.53,-5.09 0.08,-5.16 0.70,-5.07 1.31,-4.99 1.89,-4.76 2.47,-4.53 2.98,-4.17 3.48,-3.80 3.89,-3.33 4.29,-2.86 4.57,-2.30 4.85,-1.75 4.99,-1.14 5.13,-0.53 5.12,0.08 5.11,0.70 4.95,1.30 4.79,1.91 4.49,2.45 4.20,3.00 3.78,3.46 3.35,3.92 3.36,3.92 L 3.36,3.92 Z"></path></g><g transform="translate(125.64263844269169 167.76593559187842) rotate(0 -11.361774680361265 -11.136783859622867)" stroke="none"><path fill="#1e1e1e" d="M -4.52,2.68 Q -4.52,2.68 -5.92,0.28 -7.33,-2.11 -9.40,-4.54 -11.47,-6.96 -13.14,-8.53 -14.81,-10.09 -16.52,-11.36 -18.23,-12.64 -20.65,-14.03 -23.08,-15.42 -24.74,-16.16 -26.40,-16.91 -27.15,-17.65 -27.90,-18.39 -28.37,-19.33 -28.84,-20.26 -28.99,-21.30 -29.14,-22.35 -28.95,-23.38 -28.76,-24.41 -28.25,-25.33 -27.74,-26.25 -26.96,-26.96 -26.18,-27.67 -25.22,-28.09 -24.26,-28.51 -23.21,-28.60 -22.16,-28.70 -21.14,-28.45 -20.12,-28.20 -19.23,-27.64 -18.34,-27.08 -17.67,-26.27 -17.01,-25.45 -16.64,-24.47 -16.27,-23.48 -16.23,-22.43 -16.20,-21.38 -16.50,-20.38 -16.80,-19.37 -17.41,-18.51 -18.02,-17.65 -18.87,-17.03 -19.72,-16.41 -20.72,-16.10 -21.72,-15.78 -22.77,-15.80 -23.82,-15.82 -24.81,-16.18 -25.80,-16.54 -26.63,-17.19 -27.45,-17.84 -28.02,-18.72 -28.60,-19.61 -28.86,-20.62 -29.12,-21.64 -29.04,-22.69 -28.96,-23.74 -28.55,-24.71 -28.14,-25.68 -27.45,-26.47 -26.75,-27.25 -25.84,-27.78 -24.93,-28.30 -23.90,-28.51 -22.86,-28.71 -21.82,-28.58 -20.78,-28.44 -19.83,-27.98 -18.89,-27.52 -18.89,-27.52 -18.89,-27.52 -17.65,-26.97 -16.41,-26.42 -14.44,-25.12 -12.48,-23.82 -10.87,-22.41 -9.27,-21.00 -7.17,-18.63 -5.07,-16.26 -2.91,-13.64 -0.75,-11.02 0.44,-9.24 1.64,-7.45 3.08,-5.07 4.52,-2.68 4.77,-2.10 5.03,-1.52 5.14,-0.90 5.25,-0.27 5.20,0.35 5.16,0.98 4.97,1.58 4.78,2.19 4.44,2.73 4.11,3.27 3.66,3.71 3.21,4.16 2.66,4.48 2.12,4.81 1.51,4.99 0.90,5.18 0.27,5.21 -0.35,5.24 -0.97,5.12 -1.60,5.00 -2.17,4.74 -2.75,4.48 -3.25,4.08 -3.74,3.69 -4.13,3.18 -4.52,2.68 -4.52,2.68 L -4.52,2.68 Z"></path></g><g transform="translate(204.25638641454282 97.79539527389244) rotate(0 -4.724704245239693 60.74613123076725)" stroke="none"><path fill="#1e1e1e" d="M 4.90,0.29 Q 4.90,0.29 4.85,2.43 4.80,4.57 4.35,7.82 3.91,11.08 3.53,14.07 3.15,17.06 2.70,19.69 2.24,22.32 1.47,26.86 0.70,31.41 0.24,33.94 -0.22,36.47 -0.46,38.92 -0.69,41.37 -1.23,44.26 -1.77,47.16 -2.01,49.53 -2.25,51.90 -2.61,55.09 -2.98,58.28 -3.15,61.99 -3.31,65.70 -3.42,69.34 -3.53,72.97 -3.46,75.68 -3.40,78.40 -3.27,81.29 -3.15,84.18 -3.11,87.30 -3.07,90.42 -3.01,92.85 -2.95,95.29 -2.52,97.45 -2.09,99.61 -1.29,102.39 -0.49,105.17 0.07,107.79 0.63,110.42 1.11,112.58 1.60,114.73 2.45,117.78 3.30,120.82 3.20,121.97 3.11,123.13 2.65,124.19 2.19,125.25 1.42,126.12 0.64,126.98 -0.36,127.55 -1.37,128.12 -2.50,128.33 -3.64,128.55 -4.79,128.39 -5.94,128.23 -6.97,127.72 -8.01,127.20 -8.83,126.38 -9.65,125.56 -10.16,124.52 -10.68,123.49 -10.83,122.34 -10.99,121.19 -10.77,120.05 -10.55,118.91 -9.97,117.91 -9.40,116.90 -8.54,116.13 -7.68,115.35 -6.61,114.90 -5.55,114.44 -4.39,114.35 -3.24,114.26 -2.11,114.54 -0.99,114.82 -0.01,115.44 0.95,116.07 1.68,116.97 2.40,117.88 2.80,118.96 3.20,120.05 3.23,121.21 3.26,122.37 2.91,123.47 2.57,124.58 1.90,125.52 1.22,126.46 0.28,127.14 -0.65,127.81 -1.76,128.15 -2.87,128.49 -4.03,128.45 -5.19,128.42 -6.27,128.02 -7.36,127.62 -8.26,126.89 -9.16,126.17 -9.79,125.19 -10.41,124.21 -10.69,123.09 -10.97,121.96 -10.97,121.96 -10.96,121.96 -10.98,121.39 -10.99,120.81 -11.63,118.52 -12.27,116.23 -12.65,114.13 -13.02,112.03 -13.56,109.16 -14.09,106.30 -14.77,103.34 -15.46,100.39 -15.70,97.84 -15.93,95.29 -15.88,92.85 -15.82,90.42 -15.78,87.30 -15.74,84.17 -15.60,81.24 -15.46,78.30 -15.33,75.45 -15.19,72.59 -14.91,68.75 -14.64,64.92 -14.31,60.84 -13.98,56.75 -13.32,53.76 -12.67,50.76 -12.35,48.00 -12.03,45.24 -11.56,42.77 -11.10,40.31 -10.80,37.44 -10.49,34.57 -9.99,31.90 -9.49,29.22 -8.54,24.81 -7.59,20.41 -7.09,18.15 -6.60,15.90 -6.27,12.89 -5.94,9.88 -5.63,6.92 -5.31,3.96 -5.11,1.83 -4.90,-0.29 -4.79,-0.87 -4.68,-1.46 -4.44,-2.00 -4.20,-2.54 -3.83,-3.00 -3.47,-3.47 -3.00,-3.83 -2.54,-4.20 -2.00,-4.44 -1.46,-4.68 -0.87,-4.79 -0.29,-4.90 0.29,-4.86 0.88,-4.83 1.45,-4.65 2.01,-4.47 2.52,-4.17 3.02,-3.86 3.44,-3.44 3.86,-3.02 4.17,-2.52 4.47,-2.01 4.65,-1.44 4.83,-0.88 4.86,-0.29 4.90,0.29 4.90,0.29 L 4.90,0.29 Z"></path></g><g transform="translate(221.35529399463877 294.88285699908397) rotate(0 43.872197306365194 -90.89422319045693)" stroke="none"><path fill="#1e1e1e" d="M 1.71,-4.57 Q 1.71,-4.57 5.75,-2.74 9.78,-0.92 12.80,-0.04 15.82,0.82 18.36,1.15 20.91,1.48 23.14,1.55 25.38,1.63 29.28,1.16 33.18,0.69 36.45,-0.35 39.71,-1.40 43.28,-3.59 46.86,-5.78 49.84,-8.66 52.83,-11.53 54.85,-13.77 56.87,-16.02 58.42,-17.90 59.98,-19.79 61.57,-21.51 63.16,-23.23 64.43,-25.17 65.70,-27.12 68.34,-32.32 70.98,-37.52 73.17,-42.24 75.37,-46.96 76.94,-50.94 78.52,-54.92 79.87,-59.43 81.23,-63.94 82.56,-69.76 83.89,-75.58 84.88,-79.96 85.87,-84.34 86.36,-87.84 86.85,-91.34 87.28,-94.83 87.71,-98.32 87.92,-102.06 88.14,-105.80 88.32,-110.56 88.51,-115.32 88.32,-118.72 88.14,-122.12 87.64,-124.83 87.14,-127.55 86.52,-129.63 85.90,-131.71 85.10,-133.73 84.30,-135.76 83.35,-138.09 82.40,-140.43 81.39,-142.81 80.38,-145.20 79.18,-147.45 77.98,-149.69 76.76,-151.66 75.53,-153.62 73.44,-155.22 71.34,-156.82 69.23,-156.16 67.12,-155.49 65.60,-153.93 64.08,-152.37 62.74,-150.57 61.40,-148.76 59.50,-145.90 57.61,-143.03 56.57,-140.61 55.53,-138.19 54.28,-135.07 53.03,-131.94 51.50,-129.43 49.97,-126.91 48.63,-125.10 47.29,-123.30 46.03,-120.50 44.77,-117.70 43.52,-114.35 42.27,-111.00 41.04,-108.61 39.82,-106.22 38.08,-104.18 36.33,-102.14 34.10,-101.17 31.88,-100.20 30.28,-98.04 28.69,-95.88 26.32,-95.44 23.95,-95.00 21.30,-95.62 18.65,-96.24 17.10,-97.75 15.54,-99.25 14.41,-101.60 13.27,-103.94 13.04,-106.86 12.81,-109.77 12.86,-112.77 12.90,-115.77 13.21,-119.50 13.52,-123.24 14.00,-125.99 14.48,-128.74 14.80,-130.85 15.13,-132.96 15.29,-136.01 15.45,-139.06 15.82,-142.26 16.19,-145.45 16.36,-148.89 16.54,-152.34 16.57,-155.44 16.61,-158.54 16.60,-161.13 16.58,-163.73 16.47,-166.31 16.35,-168.89 15.84,-171.97 15.33,-175.05 14.36,-177.07 13.39,-179.08 11.04,-180.09 8.69,-181.11 6.35,-181.20 4.01,-181.30 2.08,-180.71 0.16,-180.13 -0.86,-179.62 -1.89,-179.11 -3.03,-178.95 -4.16,-178.80 -5.29,-179.01 -6.42,-179.23 -7.42,-179.80 -8.42,-180.36 -9.18,-181.21 -9.95,-182.07 -10.40,-183.12 -10.85,-184.18 -10.95,-185.32 -11.04,-186.46 -10.76,-187.58 -10.48,-188.69 -9.87,-189.66 -9.25,-190.62 -8.35,-191.34 -7.46,-192.06 -6.38,-192.46 -5.30,-192.85 -4.16,-192.88 -3.01,-192.91 -1.91,-192.58 -0.82,-192.24 0.10,-191.57 1.04,-190.90 1.71,-189.97 2.37,-189.03 2.71,-187.94 3.05,-186.84 3.01,-185.69 2.98,-184.55 2.59,-183.47 2.19,-182.39 1.47,-181.50 0.75,-180.61 -0.20,-179.99 -1.17,-179.37 -2.28,-179.09 -3.40,-178.82 -4.54,-178.91 -5.69,-179.01 -6.74,-179.46 -7.79,-179.91 -8.65,-180.68 -9.50,-181.45 -10.06,-182.45 -10.63,-183.44 -10.84,-184.57 -11.06,-185.70 -10.90,-186.84 -10.75,-187.97 -10.24,-189.00 -9.73,-190.03 -8.92,-190.84 -8.10,-191.65 -8.11,-191.65 -8.11,-191.65 -4.85,-193.17 -1.60,-194.69 0.54,-194.99 2.69,-195.30 5.34,-195.13 7.98,-194.97 10.23,-194.72 12.48,-194.47 15.53,-193.17 18.59,-191.86 21.03,-190.21 23.46,-188.56 25.02,-186.28 26.58,-184.01 27.67,-180.94 28.77,-177.87 29.23,-175.07 29.69,-172.27 29.96,-169.18 30.23,-166.08 30.21,-163.48 30.19,-160.87 30.16,-158.21 30.13,-155.54 30.10,-151.82 30.06,-148.10 29.64,-144.69 29.21,-141.28 29.03,-138.21 28.85,-135.13 28.53,-131.10 28.20,-127.06 27.92,-122.99 27.64,-118.92 27.64,-115.94 27.65,-112.97 26.88,-110.98 26.11,-109.00 23.71,-108.31 21.31,-107.61 22.74,-109.26 24.16,-110.90 26.35,-112.79 28.53,-114.68 29.48,-116.59 30.42,-118.50 31.22,-120.69 32.03,-122.88 33.00,-125.10 33.97,-127.33 35.77,-129.97 37.57,-132.62 39.20,-134.82 40.83,-137.02 42.04,-140.09 43.25,-143.15 44.74,-146.46 46.22,-149.77 48.37,-153.18 50.53,-156.59 52.53,-159.11 54.53,-161.63 56.83,-163.82 59.13,-166.01 61.60,-167.39 64.08,-168.78 66.52,-169.09 68.97,-169.40 71.07,-169.00 73.16,-168.61 75.52,-167.46 77.87,-166.31 79.55,-164.89 81.24,-163.46 82.80,-161.10 84.36,-158.75 85.35,-156.34 86.34,-153.92 87.64,-151.23 88.94,-148.54 89.85,-146.00 90.76,-143.46 91.58,-140.90 92.41,-138.34 93.05,-135.85 93.69,-133.36 94.02,-130.90 94.36,-128.45 94.58,-125.37 94.81,-122.29 94.80,-118.75 94.80,-115.20 94.80,-110.32 94.80,-105.43 94.59,-101.40 94.37,-97.36 93.79,-93.83 93.20,-90.29 92.52,-86.69 91.84,-83.09 91.00,-78.68 90.17,-74.26 89.01,-68.22 87.85,-62.17 86.70,-57.34 85.55,-52.50 84.27,-48.19 83.00,-43.87 81.23,-38.81 79.46,-33.76 77.04,-27.52 74.61,-21.27 71.34,-17.10 68.08,-12.93 66.48,-11.09 64.88,-9.24 62.82,-6.66 60.75,-4.08 58.71,-1.94 56.67,0.18 54.77,1.64 52.86,3.09 50.52,4.63 48.18,6.16 45.63,7.38 43.08,8.60 38.98,9.52 34.89,10.44 31.99,10.83 29.09,11.22 26.86,11.03 24.64,10.84 22.06,10.53 19.48,10.21 16.46,9.63 13.45,9.06 10.11,8.09 6.77,7.13 2.52,5.85 -1.71,4.57 -2.23,4.30 -2.76,4.03 -3.20,3.64 -3.64,3.25 -3.98,2.76 -4.31,2.28 -4.52,1.73 -4.73,1.18 -4.81,0.60 -4.88,0.01 -4.81,-0.56 -4.74,-1.15 -4.54,-1.70 -4.33,-2.25 -4.00,-2.74 -3.66,-3.22 -3.22,-3.61 -2.78,-4.01 -2.26,-4.28 -1.74,-4.56 -1.17,-4.70 -0.60,-4.84 -0.01,-4.84 0.57,-4.85 1.14,-4.71 1.71,-4.57 1.71,-4.57 L 1.71,-4.57 Z"></path></g><g transform="translate(217.30554504656982 109.04467883514565) rotate(0 -6.524579316013501 1.012437237017231)" stroke="none"><path fill="#1e1e1e" d="M -0.20,5.02 Q -0.20,5.02 -1.82,5.05 -3.44,5.07 -5.74,5.36 -8.05,5.64 -8.10,5.58 -8.16,5.53 -8.82,6.22 -9.48,6.90 -10.33,7.34 -11.18,7.77 -12.12,7.92 -13.06,8.06 -14.00,7.90 -14.94,7.73 -15.77,7.28 -16.61,6.82 -17.26,6.12 -17.90,5.43 -18.30,4.56 -18.69,3.69 -18.78,2.74 -18.87,1.79 -18.66,0.86 -18.44,-0.05 -17.94,-0.87 -17.44,-1.68 -16.71,-2.29 -15.98,-2.89 -15.09,-3.24 -14.20,-3.58 -13.25,-3.62 -12.29,-3.66 -11.38,-3.40 -10.46,-3.13 -9.68,-2.59 -8.90,-2.05 -8.33,-1.28 -7.76,-0.52 -7.47,0.38 -7.17,1.29 -7.18,2.24 -7.20,3.19 -7.51,4.09 -7.82,4.99 -8.41,5.74 -8.99,6.49 -9.79,7.02 -10.58,7.55 -11.50,7.79 -12.42,8.03 -13.37,7.97 -14.32,7.91 -15.21,7.55 -16.09,7.19 -16.81,6.56 -17.52,5.94 -18.01,5.11 -18.49,4.29 -18.68,3.36 -18.88,2.43 -18.76,1.48 -18.65,0.54 -18.24,-0.31 -17.83,-1.17 -17.83,-1.17 -17.83,-1.17 -13.28,-3.42 -8.72,-5.67 -5.87,-5.50 -3.02,-5.33 -1.41,-5.17 0.20,-5.02 0.79,-4.92 1.39,-4.82 1.95,-4.58 2.51,-4.35 2.99,-3.98 3.47,-3.62 3.86,-3.15 4.24,-2.68 4.50,-2.13 4.76,-1.59 4.88,-0.99 5.00,-0.40 4.98,0.19 4.95,0.80 4.79,1.38 4.62,1.96 4.32,2.49 4.01,3.01 3.59,3.45 3.17,3.89 2.66,4.21 2.15,4.53 1.58,4.73 1.00,4.92 0.40,4.97 -0.20,5.02 -0.20,5.02 L -0.20,5.02 Z"></path></g><g transform="translate(302.9506244893288 140.8611080734985) rotate(0 65.49238006462241 44.744093367883636)" stroke="none"><path fill="#1e1e1e" d="M -2.06,-2.54 Q -2.06,-2.54 1.30,-5.17 4.68,-7.80 7.80,-10.08 10.93,-12.36 14.56,-14.40 18.19,-16.44 21.33,-18.20 24.47,-19.95 28.33,-21.92 32.19,-23.89 36.27,-25.86 40.35,-27.84 44.77,-29.62 49.18,-31.41 53.37,-32.89 57.55,-34.37 62.66,-36.03 67.78,-37.68 71.83,-38.91 75.88,-40.14 80.02,-40.94 84.16,-41.73 87.83,-42.45 91.50,-43.16 95.49,-43.49 99.47,-43.81 102.28,-44.12 105.09,-44.42 107.23,-44.66 109.37,-44.90 112.44,-45.24 115.51,-45.57 118.51,-44.85 121.51,-44.13 123.86,-42.90 126.22,-41.67 128.33,-40.39 130.43,-39.10 132.37,-36.40 134.31,-33.70 135.18,-30.93 136.06,-28.16 136.49,-25.98 136.92,-23.79 137.15,-20.20 137.38,-16.60 136.76,-12.62 136.14,-8.64 134.30,-5.39 132.47,-2.14 130.27,1.30 128.07,4.74 125.84,8.45 123.62,12.17 120.73,16.63 117.83,21.10 115.12,24.60 112.41,28.10 108.66,33.20 104.90,38.30 102.59,41.75 100.27,45.19 97.41,50.11 94.55,55.03 91.57,61.01 88.59,66.99 86.14,71.75 83.68,76.51 81.51,80.99 79.33,85.46 76.75,91.27 74.16,97.08 72.02,101.95 69.87,106.82 67.71,111.78 65.55,116.75 64.76,119.34 63.97,121.92 63.18,124.18 62.40,126.44 60.60,130.06 58.80,133.68 58.24,133.99 57.67,134.29 57.04,134.40 56.41,134.51 55.78,134.41 55.14,134.31 54.57,134.02 54.00,133.72 53.56,133.26 53.12,132.80 52.84,132.22 52.57,131.64 52.49,131.00 52.42,130.36 52.55,129.74 52.68,129.11 53.01,128.56 53.34,128.01 53.82,127.59 54.31,127.17 54.90,126.93 55.50,126.68 56.14,126.64 56.78,126.60 57.39,126.77 58.01,126.94 58.55,127.29 59.08,127.65 59.47,128.16 59.87,128.66 60.07,129.27 60.28,129.88 60.29,130.52 60.29,131.16 60.09,131.77 59.89,132.38 59.51,132.89 59.13,133.40 58.60,133.77 58.07,134.13 57.45,134.31 56.84,134.48 56.20,134.45 55.56,134.42 54.96,134.19 54.36,133.96 53.87,133.55 53.38,133.14 53.04,132.59 52.71,132.04 52.57,131.42 52.42,130.79 52.49,130.15 52.55,129.52 52.82,128.93 53.08,128.35 53.52,127.88 53.96,127.41 53.96,127.41 53.95,127.41 54.91,125.46 55.87,123.50 56.99,121.53 58.11,119.57 59.36,117.09 60.60,114.61 62.75,109.63 64.89,104.64 67.01,99.75 69.13,94.87 71.70,88.95 74.28,83.04 76.42,78.49 78.57,73.93 80.92,69.17 83.28,64.40 86.23,58.21 89.18,52.02 91.99,46.86 94.79,41.70 97.02,38.02 99.24,34.35 102.76,29.05 106.27,23.75 108.45,20.34 110.64,16.93 112.91,12.47 115.19,8.00 116.83,3.88 118.48,-0.22 120.01,-3.98 121.54,-7.73 123.00,-11.98 124.45,-16.23 124.37,-18.91 124.29,-21.58 124.09,-24.35 123.88,-27.12 122.93,-29.43 121.98,-31.75 119.99,-33.34 117.99,-34.93 115.27,-35.93 112.55,-36.92 108.96,-37.22 105.37,-37.51 102.63,-37.59 99.89,-37.67 96.20,-37.47 92.50,-37.26 88.83,-36.73 85.17,-36.21 81.33,-35.54 77.49,-34.88 73.50,-33.65 69.51,-32.43 64.49,-30.75 59.47,-29.06 55.44,-27.57 51.40,-26.07 47.22,-24.28 43.04,-22.49 39.10,-20.43 35.16,-18.37 31.37,-16.23 27.58,-14.09 24.44,-12.51 21.30,-10.93 17.96,-9.04 14.63,-7.15 11.61,-5.07 8.59,-2.98 5.33,-0.22 2.06,2.54 1.73,2.75 1.39,2.96 1.02,3.09 0.64,3.21 0.25,3.24 -0.13,3.27 -0.52,3.21 -0.91,3.14 -1.28,2.99 -1.64,2.83 -1.96,2.59 -2.27,2.35 -2.52,2.05 -2.77,1.74 -2.94,1.38 -3.11,1.03 -3.19,0.64 -3.26,0.25 -3.25,-0.13 -3.23,-0.53 -3.12,-0.91 -3.01,-1.29 -2.81,-1.63 -2.61,-1.97 -2.34,-2.26 -2.06,-2.54 -2.06,-2.54 L -2.06,-2.54 Z"></path></g><g transform="translate(359.24161307603083 271.48500664959755) rotate(0 40.05318224063703 28.14549429335105)" stroke="none"><path fill="#1e1e1e" d="M -3.14,-3.57 Q -3.14,-3.57 -0.49,-5.79 2.14,-8.01 4.14,-9.66 6.14,-11.31 7.92,-12.69 9.70,-14.07 12.18,-15.32 14.66,-16.56 18.00,-17.62 21.34,-18.67 24.84,-19.17 28.34,-19.68 31.27,-19.90 34.20,-20.13 37.34,-20.19 40.48,-20.25 43.16,-20.13 45.83,-20.01 48.07,-19.79 50.31,-19.57 52.59,-19.03 54.87,-18.50 59.09,-16.93 63.30,-15.37 66.52,-13.38 69.74,-11.38 72.94,-7.68 76.14,-3.97 77.32,-1.51 78.51,0.94 79.97,4.66 81.43,8.37 82.34,11.18 83.24,13.99 83.87,16.57 84.51,19.14 85.20,23.23 85.89,27.32 86.03,29.53 86.17,31.74 86.28,35.25 86.39,38.76 86.03,41.67 85.67,44.59 83.99,48.64 82.30,52.69 80.67,55.92 79.03,59.16 77.04,61.41 75.05,63.65 73.52,65.35 71.99,67.04 69.40,69.48 66.80,71.91 65.04,73.40 63.28,74.89 60.69,76.26 58.10,77.64 57.07,77.87 56.05,78.10 55.00,77.99 53.96,77.88 53.00,77.45 52.05,77.01 51.28,76.29 50.51,75.58 50.02,74.65 49.52,73.73 49.34,72.69 49.17,71.65 49.33,70.62 49.49,69.58 49.98,68.65 50.47,67.72 51.23,66.99 51.99,66.26 52.94,65.82 53.89,65.37 54.93,65.25 55.98,65.13 57.00,65.35 58.03,65.57 58.93,66.11 59.84,66.64 60.52,67.44 61.21,68.24 61.60,69.21 62.00,70.19 62.06,71.23 62.12,72.28 61.85,73.30 61.57,74.31 60.99,75.18 60.40,76.06 59.57,76.70 58.73,77.34 57.74,77.68 56.75,78.02 55.70,78.03 54.65,78.03 53.65,77.70 52.65,77.37 51.81,76.74 50.97,76.11 50.38,75.24 49.78,74.38 49.49,73.37 49.21,72.35 49.26,71.30 49.31,70.26 49.69,69.28 50.08,68.30 50.75,67.49 51.43,66.69 52.33,66.14 53.22,65.60 53.22,65.60 53.22,65.60 54.18,65.23 55.13,64.87 57.13,63.35 59.13,61.83 60.84,60.36 62.54,58.90 64.15,56.95 65.76,55.00 67.53,52.58 69.30,50.15 70.84,46.93 72.37,43.71 73.06,41.31 73.75,38.90 73.72,35.69 73.68,32.49 73.35,29.06 73.01,25.63 72.43,22.53 71.85,19.44 71.32,17.06 70.79,14.69 70.06,11.86 69.33,9.04 67.89,5.74 66.45,2.44 64.71,0.15 62.96,-2.13 60.75,-3.81 58.54,-5.48 55.29,-6.91 52.03,-8.33 48.58,-9.21 45.12,-10.08 42.92,-10.31 40.73,-10.54 37.80,-10.44 34.86,-10.35 32.28,-10.20 29.70,-10.06 27.06,-9.69 24.43,-9.32 21.63,-8.32 18.83,-7.33 15.39,-5.55 11.95,-3.77 10.09,-2.44 8.22,-1.11 5.68,1.23 3.14,3.57 2.67,3.90 2.20,4.22 1.66,4.42 1.12,4.63 0.55,4.69 -0.01,4.76 -0.58,4.69 -1.15,4.62 -1.69,4.41 -2.22,4.21 -2.70,3.88 -3.17,3.55 -3.55,3.12 -3.93,2.69 -4.19,2.18 -4.46,1.67 -4.59,1.11 -4.73,0.55 -4.73,-0.01 -4.72,-0.59 -4.58,-1.14 -4.45,-1.70 -4.18,-2.21 -3.91,-2.72 -3.53,-3.14 -3.14,-3.57 -3.14,-3.57 L -3.14,-3.57 Z"></path></g><g transform="translate(414.45007206303814 343.29207847607313) rotate(0 -57.553921433098424 -36.44478694814953)" stroke="none"><path fill="#1e1e1e" d="M 2.88,4.21 Q 2.88,4.21 0.93,5.60 -1.00,6.98 -4.41,8.75 -7.82,10.52 -12.00,11.68 -16.18,12.85 -18.42,13.19 -20.66,13.53 -24.01,13.57 -27.36,13.62 -29.75,13.69 -32.13,13.76 -34.51,13.79 -36.89,13.83 -39.15,13.86 -41.40,13.89 -43.81,13.90 -46.23,13.90 -48.39,13.93 -50.56,13.95 -55.68,13.60 -60.80,13.25 -63.12,12.92 -65.44,12.58 -69.76,11.80 -74.08,11.03 -76.19,10.37 -78.29,9.71 -80.32,8.81 -82.35,7.92 -84.31,6.64 -86.28,5.36 -88.17,3.53 -90.07,1.71 -91.90,-0.20 -93.73,-2.11 -96.65,-4.58 -99.56,-7.06 -101.72,-9.10 -103.87,-11.15 -105.76,-12.89 -107.66,-14.63 -109.07,-16.25 -110.49,-17.87 -111.96,-19.99 -113.43,-22.11 -114.49,-23.98 -115.55,-25.86 -116.35,-28.39 -117.14,-30.91 -117.85,-33.12 -118.56,-35.33 -119.45,-37.86 -120.33,-40.39 -120.72,-42.82 -121.10,-45.25 -121.25,-48.15 -121.40,-51.05 -121.78,-53.46 -122.15,-55.86 -122.16,-58.48 -122.18,-61.10 -122.16,-64.01 -122.14,-66.92 -122.13,-69.70 -122.12,-72.49 -122.14,-76.65 -122.17,-80.81 -121.98,-81.94 -121.80,-83.06 -121.26,-84.07 -120.73,-85.08 -119.90,-85.87 -119.07,-86.66 -118.03,-87.14 -116.99,-87.62 -115.86,-87.74 -114.72,-87.86 -113.60,-87.62 -112.49,-87.37 -111.51,-86.78 -110.53,-86.19 -109.79,-85.32 -109.05,-84.45 -108.63,-83.39 -108.20,-82.33 -108.14,-81.19 -108.08,-80.04 -108.39,-78.94 -108.69,-77.84 -109.33,-76.90 -109.98,-75.95 -110.89,-75.26 -111.79,-74.57 -112.88,-74.20 -113.96,-73.84 -115.10,-73.84 -116.25,-73.84 -117.33,-74.20 -118.41,-74.57 -119.32,-75.26 -120.23,-75.95 -120.87,-76.90 -121.51,-77.84 -121.82,-78.95 -122.13,-80.05 -122.06,-81.19 -122.00,-82.33 -121.58,-83.39 -121.15,-84.45 -120.41,-85.32 -119.67,-86.19 -118.70,-86.78 -117.72,-87.37 -116.60,-87.62 -115.48,-87.86 -114.35,-87.74 -113.21,-87.61 -112.17,-87.13 -111.14,-86.65 -110.31,-85.87 -109.48,-85.08 -108.94,-84.07 -108.41,-83.06 -108.22,-81.93 -108.04,-80.81 -108.04,-80.81 -108.04,-80.81 -108.06,-76.65 -108.09,-72.49 -108.08,-69.71 -108.06,-66.93 -108.03,-64.04 -108.01,-61.16 -107.98,-58.85 -107.94,-56.55 -107.64,-53.94 -107.33,-51.32 -107.30,-49.16 -107.28,-46.99 -107.15,-44.68 -107.02,-42.37 -106.06,-39.56 -105.11,-36.75 -104.03,-33.69 -102.95,-30.62 -101.50,-27.97 -100.06,-25.32 -98.68,-23.54 -97.30,-21.75 -95.26,-19.68 -93.21,-17.61 -91.10,-15.55 -89.00,-13.50 -87.23,-11.93 -85.46,-10.37 -82.48,-7.38 -79.49,-4.39 -77.09,-2.86 -74.68,-1.34 -71.36,-0.25 -68.05,0.83 -63.79,1.46 -59.54,2.09 -55.05,2.36 -50.57,2.63 -48.41,2.65 -46.25,2.67 -43.85,2.67 -41.45,2.67 -39.22,2.68 -37.00,2.69 -34.69,2.68 -32.38,2.68 -30.09,2.64 -27.80,2.61 -23.08,2.17 -18.36,1.73 -14.94,0.93 -11.52,0.14 -9.20,-0.72 -6.87,-1.59 -4.87,-2.90 -2.88,-4.21 -2.33,-4.50 -1.79,-4.78 -1.19,-4.92 -0.59,-5.07 0.02,-5.07 0.63,-5.06 1.23,-4.91 1.83,-4.76 2.37,-4.48 2.91,-4.19 3.37,-3.78 3.83,-3.37 4.18,-2.86 4.53,-2.35 4.74,-1.77 4.96,-1.20 5.03,-0.59 5.10,0.02 5.03,0.63 4.95,1.24 4.73,1.81 4.51,2.39 4.16,2.89 3.80,3.40 3.34,3.81 2.88,4.21 2.88,4.21 L 2.88,4.21 Z"></path></g><g transform="translate(318.1058737058278 170.089104436673) rotate(0 20.567869685101527 -7.3972075966122475)" stroke="none"><path fill="#1e1e1e" d="M -2.20,-4.80 Q -2.20,-4.80 0.29,-5.93 2.78,-7.06 6.39,-8.76 10.00,-10.45 13.94,-12.03 17.87,-13.60 20.75,-14.73 23.64,-15.85 26.71,-16.99 29.79,-18.12 32.42,-18.98 35.05,-19.83 37.58,-20.38 40.11,-20.93 41.11,-20.90 42.12,-20.87 43.06,-20.51 44.01,-20.16 44.79,-19.52 45.57,-18.89 46.10,-18.04 46.64,-17.18 46.88,-16.20 47.11,-15.22 47.03,-14.22 46.94,-13.22 46.53,-12.30 46.13,-11.37 45.45,-10.63 44.77,-9.88 43.89,-9.39 43.01,-8.90 42.02,-8.72 41.03,-8.54 40.04,-8.68 39.04,-8.82 38.14,-9.27 37.24,-9.73 36.53,-10.44 35.83,-11.16 35.38,-12.07 34.94,-12.97 34.81,-13.97 34.68,-14.97 34.88,-15.96 35.08,-16.95 35.58,-17.82 36.08,-18.69 36.83,-19.36 37.59,-20.03 38.52,-20.42 39.44,-20.81 40.45,-20.89 41.45,-20.96 42.43,-20.71 43.40,-20.46 44.25,-19.91 45.09,-19.37 45.72,-18.58 46.35,-17.79 46.69,-16.84 47.03,-15.89 47.05,-14.89 47.07,-13.88 46.77,-12.92 46.46,-11.96 45.87,-11.14 45.28,-10.33 44.46,-9.75 43.63,-9.16 42.67,-8.88 41.70,-8.59 41.71,-8.59 41.71,-8.59 40.19,-8.27 38.67,-7.96 36.30,-7.38 33.94,-6.80 30.97,-5.87 28.00,-4.94 24.91,-3.97 21.82,-3.00 18.04,-1.65 14.27,-0.30 10.72,1.09 7.17,2.50 4.68,3.65 2.20,4.80 1.59,5.00 0.98,5.19 0.35,5.23 -0.28,5.28 -0.91,5.17 -1.53,5.06 -2.12,4.80 -2.70,4.54 -3.21,4.15 -3.71,3.76 -4.11,3.26 -4.50,2.76 -4.77,2.18 -5.03,1.60 -5.15,0.98 -5.27,0.35 -5.24,-0.28 -5.20,-0.91 -5.02,-1.52 -4.83,-2.13 -4.51,-2.68 -4.18,-3.23 -3.73,-3.68 -3.29,-4.14 -2.74,-4.47 -2.20,-4.80 -2.20,-4.80 L -2.20,-4.80 Z"></path></g><g transform="translate(352.7464905376048 161.42895022872875) rotate(0 -22.37203980147399 28.14549429335105)" stroke="none"><path fill="#1e1e1e" d="M 4.15,2.87 Q 4.15,2.87 2.22,5.53 0.29,8.18 -1.00,10.06 -2.30,11.94 -3.87,14.12 -5.44,16.31 -7.50,18.72 -9.56,21.13 -11.24,23.04 -12.92,24.96 -14.84,26.70 -16.77,28.44 -19.86,31.19 -22.95,33.94 -24.92,35.89 -26.88,37.84 -28.25,40.04 -29.61,42.24 -30.88,44.68 -32.16,47.13 -33.45,49.63 -34.74,52.13 -36.20,54.57 -37.66,57.00 -38.20,57.82 -38.74,58.64 -39.29,59.52 -39.84,60.41 -40.64,61.07 -41.44,61.74 -42.42,62.11 -43.39,62.48 -44.44,62.52 -45.48,62.56 -46.48,62.27 -47.48,61.98 -48.33,61.38 -49.19,60.78 -49.81,59.94 -50.43,59.10 -50.75,58.11 -51.07,57.12 -51.05,56.07 -51.04,55.03 -50.69,54.05 -50.34,53.06 -49.70,52.24 -49.05,51.42 -48.18,50.85 -47.31,50.28 -46.30,50.01 -45.29,49.75 -44.25,49.82 -43.21,49.89 -42.25,50.29 -41.29,50.69 -40.50,51.38 -39.72,52.06 -39.19,52.97 -38.67,53.87 -38.46,54.89 -38.25,55.91 -38.38,56.94 -38.50,57.98 -38.95,58.92 -39.41,59.86 -40.13,60.61 -40.86,61.35 -41.79,61.83 -42.72,62.30 -43.75,62.46 -44.78,62.61 -45.81,62.43 -46.84,62.24 -47.75,61.74 -48.66,61.24 -49.37,60.47 -50.08,59.71 -50.50,58.75 -50.93,57.80 -51.02,56.76 -51.12,55.72 -50.88,54.71 -50.64,53.69 -50.64,53.69 -50.64,53.69 -48.18,49.98 -45.72,46.26 -44.40,44.06 -43.08,41.87 -41.36,38.95 -39.63,36.03 -38.41,34.17 -37.20,32.30 -34.79,29.85 -32.38,27.39 -29.47,25.17 -26.57,22.94 -23.51,20.50 -20.45,18.06 -18.84,16.37 -17.23,14.68 -15.44,12.52 -13.65,10.36 -10.71,6.48 -7.76,2.60 -5.96,-0.13 -4.15,-2.87 -3.75,-3.33 -3.34,-3.79 -2.84,-4.13 -2.34,-4.48 -1.77,-4.69 -1.20,-4.91 -0.59,-4.98 0.00,-5.05 0.61,-4.98 1.21,-4.91 1.78,-4.69 2.35,-4.47 2.85,-4.12 3.36,-3.78 3.76,-3.32 4.16,-2.86 4.45,-2.32 4.73,-1.78 4.87,-1.19 5.02,-0.60 5.02,0.00 5.02,0.61 4.87,1.20 4.72,1.80 4.44,2.34 4.15,2.88 4.15,2.88 L 4.15,2.87 Z"></path></g><g transform="translate(431.7703254191841 49.20786213834171) rotate(0 -6.85592903182922 24.71750913003295)" stroke="none"><path fill="#1e1e1e" d="M 4.69,1.39 Q 4.69,1.39 3.86,4.19 3.03,6.99 2.09,10.17 1.16,13.35 -0.18,17.55 -1.54,21.75 -2.01,24.43 -2.48,27.11 -3.09,30.79 -3.70,34.48 -4.59,37.81 -5.48,41.15 -6.37,44.63 -7.25,48.11 -8.43,50.75 -9.61,53.40 -10.36,53.93 -11.11,54.47 -11.99,54.74 -12.88,55.01 -13.80,54.98 -14.72,54.96 -15.58,54.64 -16.45,54.32 -17.17,53.74 -17.89,53.16 -18.38,52.39 -18.88,51.61 -19.10,50.71 -19.32,49.82 -19.24,48.90 -19.17,47.98 -18.80,47.13 -18.44,46.29 -17.82,45.60 -17.20,44.92 -16.40,44.46 -15.60,44.01 -14.69,43.84 -13.79,43.66 -12.87,43.79 -11.96,43.92 -11.13,44.33 -10.31,44.74 -9.66,45.39 -9.01,46.04 -8.60,46.87 -8.19,47.70 -8.07,48.61 -7.94,49.52 -8.12,50.43 -8.29,51.33 -8.75,52.14 -9.20,52.94 -9.89,53.55 -10.58,54.17 -11.42,54.53 -12.27,54.90 -13.19,54.97 -14.11,55.04 -15.00,54.82 -15.90,54.60 -16.67,54.10 -17.45,53.60 -18.03,52.88 -18.60,52.16 -18.92,51.29 -19.24,50.43 -19.26,49.51 -19.29,48.59 -19.01,47.70 -18.74,46.82 -18.20,46.07 -17.66,45.33 -17.66,45.33 -17.67,45.33 -17.30,43.98 -16.94,42.63 -16.13,40.10 -15.32,37.57 -14.15,34.63 -12.98,31.70 -11.98,28.53 -10.98,25.35 -10.31,22.51 -9.64,19.68 -8.80,15.29 -7.97,10.91 -7.16,7.56 -6.35,4.21 -5.52,1.41 -4.69,-1.39 -4.46,-1.93 -4.22,-2.47 -3.87,-2.94 -3.51,-3.41 -3.05,-3.78 -2.59,-4.15 -2.05,-4.40 -1.52,-4.65 -0.94,-4.77 -0.36,-4.88 0.22,-4.85 0.81,-4.83 1.38,-4.66 1.94,-4.49 2.45,-4.19 2.96,-3.89 3.39,-3.48 3.81,-3.07 4.12,-2.57 4.43,-2.07 4.62,-1.51 4.80,-0.95 4.85,-0.36 4.89,0.22 4.79,0.81 4.69,1.39 4.69,1.39 L 4.69,1.39 Z"></path></g><g transform="translate(440.0696456038538 287.72278546579133) rotate(0 35.542715654898956 -38.60981861766774)" stroke="none"><path fill="#1e1e1e" d="M -0.27,-3.72 Q -0.27,-3.72 2.51,-4.05 5.30,-4.38 8.24,-4.83 11.18,-5.28 15.10,-5.65 19.02,-6.02 23.14,-6.49 27.26,-6.95 31.25,-7.88 35.23,-8.81 38.73,-10.06 42.22,-11.31 45.13,-12.80 48.03,-14.29 50.81,-16.11 53.58,-17.93 56.71,-20.38 59.84,-22.82 62.26,-25.04 64.68,-27.25 66.22,-29.17 67.75,-31.10 69.88,-34.30 72.02,-37.51 72.67,-39.66 73.31,-41.81 73.09,-45.60 72.87,-49.38 71.69,-51.86 70.51,-54.34 68.26,-56.67 66.02,-58.99 63.70,-60.56 61.39,-62.14 58.96,-63.39 56.53,-64.64 53.21,-66.23 49.89,-67.83 47.54,-68.68 45.19,-69.54 43.14,-70.10 41.08,-70.66 38.19,-70.86 35.30,-71.05 31.61,-70.99 27.91,-70.94 23.94,-70.63 19.98,-70.33 17.33,-70.13 14.69,-69.93 10.76,-69.33 6.84,-68.72 4.32,-68.13 1.79,-67.54 -0.28,-67.09 -2.36,-66.63 -3.16,-66.08 -3.97,-65.52 -4.91,-65.12 -5.85,-64.72 -6.87,-64.64 -7.88,-64.56 -8.88,-64.81 -9.87,-65.06 -10.73,-65.61 -11.59,-66.16 -12.23,-66.96 -12.87,-67.76 -13.22,-68.72 -13.57,-69.68 -13.59,-70.70 -13.62,-71.73 -13.31,-72.70 -13.01,-73.68 -12.41,-74.51 -11.82,-75.34 -10.98,-75.93 -10.15,-76.53 -9.17,-76.82 -8.19,-77.12 -7.17,-77.09 -6.15,-77.06 -5.19,-76.71 -4.23,-76.35 -3.44,-75.71 -2.64,-75.07 -2.09,-74.20 -1.54,-73.34 -1.30,-72.35 -1.06,-71.35 -1.14,-70.33 -1.23,-69.32 -1.63,-68.38 -2.04,-67.44 -2.72,-66.68 -3.41,-65.92 -4.30,-65.42 -5.19,-64.92 -6.20,-64.73 -7.20,-64.54 -8.21,-64.68 -9.23,-64.82 -10.14,-65.28 -11.06,-65.73 -11.78,-66.46 -12.50,-67.18 -12.95,-68.10 -13.40,-69.02 -13.54,-70.03 -13.67,-71.04 -13.48,-72.05 -13.28,-73.05 -12.78,-73.94 -12.27,-74.83 -11.51,-75.51 -10.75,-76.19 -10.75,-76.19 -10.75,-76.19 -7.76,-77.58 -4.78,-78.97 -2.60,-79.29 -0.43,-79.60 2.12,-80.01 4.67,-80.41 9.07,-81.06 13.48,-81.71 18.22,-82.22 22.97,-82.73 27.22,-82.94 31.47,-83.15 35.69,-82.94 39.90,-82.72 42.01,-82.37 44.12,-82.01 46.50,-81.37 48.88,-80.74 52.08,-79.77 55.28,-78.80 58.77,-77.07 62.26,-75.34 65.13,-73.63 67.99,-71.91 69.74,-70.67 71.49,-69.43 74.27,-66.66 77.05,-63.90 78.62,-61.85 80.19,-59.80 81.34,-57.46 82.48,-55.11 83.00,-52.68 83.51,-50.25 83.64,-47.76 83.77,-45.27 83.61,-42.79 83.44,-40.30 82.19,-37.25 80.95,-34.19 78.71,-31.73 76.47,-29.26 74.95,-27.58 73.43,-25.89 71.37,-23.89 69.32,-21.89 66.71,-19.77 64.10,-17.64 60.75,-14.76 57.40,-11.88 54.23,-9.94 51.05,-8.01 47.75,-6.53 44.46,-5.06 40.69,-3.72 36.93,-2.38 32.62,-1.13 28.32,0.12 24.15,0.90 19.97,1.67 16.11,2.26 12.24,2.85 9.07,3.20 5.89,3.55 3.08,3.63 0.27,3.72 -0.17,3.70 -0.62,3.68 -1.05,3.55 -1.48,3.42 -1.87,3.19 -2.26,2.96 -2.58,2.65 -2.90,2.34 -3.14,1.95 -3.38,1.57 -3.52,1.15 -3.66,0.72 -3.69,0.27 -3.72,-0.17 -3.65,-0.61 -3.57,-1.06 -3.39,-1.47 -3.22,-1.88 -2.94,-2.24 -2.67,-2.60 -2.32,-2.88 -1.97,-3.16 -1.56,-3.35 -1.15,-3.54 -0.71,-3.63 -0.27,-3.72 -0.27,-3.72 L -0.27,-3.72 Z"></path></g><g transform="translate(432.49204852547564 216.99824323901055) rotate(0 26.88253391708338 -82.09099290409065)" stroke="none"><path fill="#1e1e1e" d="M -3.06,-2.30 Q -3.06,-2.30 -1.62,-4.45 -0.17,-6.61 1.39,-8.68 2.96,-10.76 5.62,-13.81 8.27,-16.86 11.15,-21.06 14.03,-25.27 16.61,-30.26 19.19,-35.25 21.50,-39.80 23.81,-44.36 25.87,-48.37 27.92,-52.38 29.40,-55.21 30.88,-58.05 32.40,-60.66 33.91,-63.26 35.81,-66.36 37.71,-69.45 40.96,-75.66 44.21,-81.87 46.67,-87.18 49.12,-92.49 50.92,-96.79 52.71,-101.09 54.24,-104.36 55.77,-107.64 56.64,-110.40 57.52,-113.17 57.86,-115.62 58.21,-118.07 58.29,-120.54 58.37,-123.01 57.94,-127.59 57.52,-132.17 56.84,-134.48 56.15,-136.78 54.31,-139.62 52.46,-142.46 49.75,-144.73 47.04,-147.00 45.35,-148.76 43.65,-150.52 41.80,-151.79 39.94,-153.06 37.08,-154.10 34.21,-155.13 32.19,-155.81 30.17,-156.48 27.53,-157.00 24.90,-157.51 21.94,-157.45 18.99,-157.39 16.20,-157.40 13.41,-157.41 11.13,-156.29 8.85,-155.18 6.37,-154.04 3.90,-152.89 1.86,-151.82 -0.17,-150.75 -1.30,-150.98 -2.42,-151.20 -3.01,-150.23 -3.60,-149.25 -4.47,-148.51 -5.35,-147.78 -6.41,-147.36 -7.47,-146.94 -8.61,-146.88 -9.75,-146.82 -10.85,-147.12 -11.95,-147.43 -12.89,-148.07 -13.83,-148.72 -14.52,-149.63 -15.21,-150.54 -15.57,-151.62 -15.93,-152.70 -15.93,-153.84 -15.93,-154.98 -15.56,-156.07 -15.20,-157.15 -14.50,-158.05 -13.81,-158.96 -12.86,-159.60 -11.92,-160.24 -10.82,-160.54 -9.72,-160.84 -8.58,-160.78 -7.44,-160.71 -6.38,-160.29 -5.32,-159.86 -4.45,-159.12 -3.58,-158.38 -3.00,-157.40 -2.41,-156.42 -2.17,-155.31 -1.92,-154.19 -2.05,-153.06 -2.18,-151.93 -2.66,-150.89 -3.14,-149.86 -3.93,-149.03 -4.71,-148.20 -5.72,-147.67 -6.73,-147.14 -7.86,-146.96 -8.99,-146.77 -10.11,-146.96 -11.24,-147.15 -12.24,-147.69 -13.25,-148.22 -14.03,-149.05 -14.82,-149.88 -15.29,-150.92 -15.77,-151.96 -15.89,-153.09 -16.01,-154.23 -15.76,-155.34 -15.52,-156.45 -15.52,-156.45 -15.52,-156.45 -11.17,-159.76 -6.82,-163.07 -4.58,-164.24 -2.34,-165.41 0.17,-166.58 2.68,-167.74 5.44,-168.86 8.20,-169.98 10.76,-170.46 13.31,-170.95 16.16,-170.95 19.01,-170.95 21.39,-170.88 23.77,-170.81 26.24,-170.49 28.71,-170.18 31.20,-169.47 33.70,-168.77 36.15,-167.81 38.60,-166.84 41.37,-165.65 44.15,-164.46 46.64,-162.87 49.13,-161.28 50.93,-159.30 52.73,-157.32 54.09,-155.37 55.45,-153.41 57.19,-151.30 58.92,-149.20 60.28,-146.46 61.64,-143.73 62.77,-141.18 63.90,-138.62 64.37,-135.86 64.84,-133.09 65.66,-127.71 66.48,-122.33 66.09,-119.41 65.69,-116.50 64.90,-113.60 64.12,-110.70 62.83,-107.71 61.54,-104.72 59.93,-101.79 58.31,-98.85 56.61,-94.39 54.91,-89.93 52.57,-84.40 50.23,-78.86 47.07,-72.25 43.91,-65.64 41.96,-62.47 40.01,-59.31 38.32,-56.98 36.63,-54.64 34.98,-52.18 33.32,-49.72 31.40,-45.66 29.49,-41.61 27.34,-36.96 25.20,-32.30 22.67,-26.85 20.13,-21.39 17.32,-16.65 14.50,-11.91 12.07,-8.56 9.64,-5.21 8.01,-3.44 6.39,-1.68 4.73,0.30 3.06,2.30 2.74,2.63 2.42,2.96 2.03,3.21 1.64,3.46 1.20,3.61 0.77,3.75 0.30,3.79 -0.15,3.83 -0.60,3.75 -1.06,3.68 -1.48,3.50 -1.91,3.32 -2.28,3.04 -2.65,2.76 -2.94,2.41 -3.24,2.05 -3.43,1.63 -3.63,1.21 -3.73,0.76 -3.82,0.31 -3.80,-0.15 -3.78,-0.61 -3.65,-1.05 -3.53,-1.50 -3.29,-1.90 -3.06,-2.30 -3.06,-2.30 L -3.06,-2.30 Z"></path></g><g transform="translate(493.27846636602055 210.14228667731004) rotate(0 25.439197823985396 -50.878368118099516)" stroke="none"><path fill="#1e1e1e" d="M -5.27,0 Q -5.27,0 -5.25,-2.80 -5.23,-5.60 -5.38,-8.65 -5.54,-11.71 -5.67,-13.85 -5.80,-15.98 -5.95,-18.58 -6.10,-21.19 -6.26,-24.10 -6.41,-27.00 -6.94,-30.15 -7.48,-33.30 -7.97,-36.70 -8.46,-40.10 -8.66,-44.25 -8.87,-48.41 -8.95,-51.21 -9.02,-54.02 -9.08,-56.22 -9.13,-58.42 -9.17,-60.89 -9.21,-63.36 -9.08,-66.82 -8.95,-70.27 -8.33,-74.30 -7.70,-78.33 -6.65,-81.49 -5.60,-84.65 -4.39,-87.32 -3.18,-89.98 -1.15,-92.67 0.87,-95.35 4.20,-98.09 7.52,-100.83 10.38,-102.66 13.24,-104.49 16.57,-105.90 19.90,-107.31 24.01,-107.81 28.12,-108.30 31.32,-108.26 34.52,-108.23 38.91,-106.95 43.29,-105.67 45.25,-104.48 47.21,-103.29 49.48,-100.74 51.75,-98.18 53.04,-95.54 54.33,-92.90 55.78,-88.75 57.22,-84.60 57.70,-80.97 58.17,-77.35 58.51,-74.82 58.85,-72.29 58.68,-67.91 58.51,-63.53 58.23,-59.06 57.95,-54.58 57.71,-49.36 57.48,-44.14 57.29,-38.71 57.10,-33.28 57.18,-30.04 57.25,-26.80 57.33,-23.76 57.42,-20.72 57.61,-16.29 57.80,-11.86 57.69,-11.15 57.57,-10.45 57.24,-9.82 56.90,-9.19 56.39,-8.70 55.87,-8.21 55.22,-7.91 54.58,-7.61 53.87,-7.54 53.16,-7.46 52.47,-7.61 51.77,-7.77 51.16,-8.13 50.55,-8.50 50.09,-9.04 49.63,-9.59 49.36,-10.25 49.10,-10.91 49.06,-11.62 49.02,-12.33 49.21,-13.02 49.40,-13.70 49.80,-14.29 50.20,-14.88 50.77,-15.31 51.34,-15.74 52.01,-15.97 52.69,-16.20 53.40,-16.20 54.11,-16.20 54.79,-15.97 55.46,-15.74 56.03,-15.31 56.59,-14.88 56.99,-14.29 57.39,-13.70 57.58,-13.02 57.77,-12.33 57.74,-11.62 57.70,-10.91 57.43,-10.25 57.17,-9.59 56.71,-9.04 56.25,-8.50 55.64,-8.13 55.03,-7.77 54.33,-7.61 53.64,-7.46 52.93,-7.54 52.22,-7.61 51.57,-7.91 50.93,-8.21 50.41,-8.70 49.89,-9.19 49.56,-9.82 49.23,-10.45 49.11,-11.15 49.00,-11.86 49.00,-11.86 49.00,-11.85 49.19,-16.29 49.37,-20.72 49.45,-23.75 49.53,-26.79 49.60,-30.03 49.66,-33.26 49.45,-38.68 49.24,-44.10 48.95,-49.27 48.66,-54.44 48.25,-58.79 47.84,-63.13 47.37,-66.82 46.89,-70.51 46.51,-72.81 46.12,-75.11 44.81,-79.77 43.49,-84.43 42.21,-87.16 40.93,-89.89 39.36,-91.69 37.79,-93.49 35.72,-94.15 33.65,-94.81 31.22,-94.88 28.80,-94.94 26.63,-94.83 24.45,-94.73 22.16,-93.81 19.86,-92.88 17.59,-91.44 15.31,-90.00 13.12,-88.18 10.93,-86.37 9.32,-84.23 7.72,-82.09 6.78,-79.78 5.84,-77.46 5.20,-75.32 4.56,-73.17 4.37,-69.55 4.19,-65.93 4.16,-63.33 4.13,-60.73 4.09,-58.36 4.05,-55.99 4.01,-53.82 3.97,-51.65 4.04,-48.30 4.11,-44.96 4.49,-41.77 4.87,-38.58 5.19,-36.01 5.50,-33.45 5.75,-30.67 6.00,-27.90 6.05,-24.54 6.10,-21.19 5.95,-18.58 5.80,-15.98 5.67,-13.85 5.54,-11.71 5.38,-8.65 5.23,-5.60 5.25,-2.80 5.27,0 5.19,0.63 5.12,1.26 4.89,1.85 4.67,2.45 4.30,2.97 3.94,3.49 3.47,3.91 2.99,4.34 2.43,4.63 1.87,4.93 1.25,5.08 0.63,5.23 -0.00,5.23 -0.63,5.23 -1.25,5.08 -1.87,4.93 -2.43,4.63 -2.99,4.34 -3.47,3.91 -3.94,3.49 -4.30,2.97 -4.67,2.45 -4.89,1.85 -5.12,1.26 -5.19,0.63 -5.27,-0.00 -5.27,-0.00 L -5.27,0 Z"></path></g><g transform="translate(546.6827277067841 198.59543275329855) rotate(0 35.54268812502761 14.974832204861727)" stroke="none"><path fill="#1e1e1e" d="M -3.96,-0.39 Q -3.96,-0.39 -3.71,-3.51 -3.45,-6.63 -3.24,-8.75 -3.02,-10.87 -2.40,-13.64 -1.77,-16.42 -0.27,-21.42 1.21,-26.42 3.40,-31.10 5.59,-35.78 7.65,-39.52 9.71,-43.25 11.74,-46.50 13.78,-49.76 17.61,-53.21 21.43,-56.65 24.80,-59.27 28.16,-61.88 31.37,-63.82 34.58,-65.76 37.06,-67.12 39.53,-68.48 42.21,-69.50 44.88,-70.52 47.01,-71.16 49.15,-71.79 52.60,-72.37 56.05,-72.94 59.31,-72.78 62.57,-72.62 65.28,-71.01 68.00,-69.40 70.04,-65.91 72.08,-62.43 72.83,-60.07 73.58,-57.72 74.18,-55.39 74.78,-53.07 75.32,-50.34 75.85,-47.61 76.16,-45.30 76.46,-43.00 76.71,-39.29 76.95,-35.57 76.89,-32.70 76.83,-29.82 76.79,-27.16 76.76,-24.50 76.62,-21.70 76.47,-18.91 76.22,-16.40 75.96,-13.90 74.98,-10.96 73.99,-8.01 72.23,-4.74 70.48,-1.47 69.32,0.87 68.17,3.22 66.22,6.54 64.27,9.85 60.21,16.24 56.15,22.62 53.08,27.06 50.02,31.50 46.99,35.74 43.97,39.98 39.30,48.36 34.64,56.73 31.95,61.29 29.26,65.85 27.75,68.71 26.24,71.57 24.82,74.12 23.41,76.67 21.89,79.09 20.37,81.52 18.21,84.67 16.04,87.83 14.65,90.42 13.26,93.01 11.56,96.34 9.86,99.67 9.46,100.25 9.07,100.83 8.51,101.25 7.94,101.68 7.27,101.90 6.61,102.12 5.90,102.12 5.20,102.12 4.53,101.89 3.86,101.67 3.31,101.24 2.75,100.81 2.35,100.22 1.96,99.64 1.77,98.96 1.59,98.28 1.63,97.58 1.67,96.88 1.93,96.22 2.19,95.57 2.65,95.03 3.11,94.50 3.71,94.14 4.32,93.78 5.01,93.63 5.70,93.48 6.40,93.56 7.10,93.63 7.73,93.93 8.37,94.23 8.88,94.72 9.39,95.20 9.72,95.83 10.05,96.45 10.16,97.15 10.27,97.84 10.15,98.54 10.04,99.23 9.71,99.85 9.37,100.47 8.86,100.96 8.35,101.44 7.71,101.73 7.07,102.02 6.37,102.10 5.67,102.17 4.98,102.02 4.29,101.86 3.69,101.50 3.09,101.13 2.63,100.60 2.18,100.06 1.92,99.40 1.66,98.75 1.63,98.04 1.59,97.34 1.78,96.66 1.97,95.98 1.97,95.98 1.97,95.98 4.18,92.50 6.40,89.02 8.05,86.36 9.71,83.69 11.79,80.35 13.88,77.01 15.52,74.88 17.16,72.76 18.78,70.46 20.40,68.16 22.13,65.47 23.87,62.79 26.37,58.20 28.87,53.60 33.49,44.84 38.11,36.08 40.81,31.73 43.51,27.39 46.13,22.84 48.74,18.30 52.17,11.85 55.60,5.40 57.12,1.96 58.64,-1.47 59.80,-3.80 60.95,-6.13 62.18,-8.97 63.41,-11.82 64.34,-15.57 65.26,-19.33 65.32,-21.90 65.38,-24.47 65.33,-27.11 65.28,-29.75 65.18,-34.18 65.08,-38.60 64.88,-41.92 64.67,-45.23 64.10,-47.70 63.53,-50.17 62.51,-53.98 61.49,-57.80 60.28,-60.44 59.07,-63.07 56.52,-63.19 53.97,-63.31 50.66,-63.05 47.36,-62.78 45.07,-62.20 42.77,-61.63 40.39,-60.69 38.01,-59.74 35.17,-58.23 32.33,-56.71 29.27,-54.13 26.20,-51.55 23.21,-48.62 20.22,-45.69 18.40,-42.73 16.59,-39.77 14.97,-36.21 13.34,-32.64 11.74,-27.96 10.14,-23.29 8.58,-18.72 7.03,-14.16 5.86,-9.99 4.70,-5.81 4.33,-2.70 3.96,0.39 3.85,0.86 3.75,1.33 3.54,1.76 3.32,2.19 3.01,2.55 2.70,2.92 2.31,3.20 1.92,3.48 1.48,3.66 1.03,3.84 0.55,3.91 0.08,3.98 -0.39,3.93 -0.87,3.88 -1.32,3.72 -1.77,3.56 -2.17,3.30 -2.57,3.03 -2.90,2.68 -3.23,2.33 -3.46,1.91 -3.69,1.49 -3.81,1.02 -3.94,0.56 -3.95,0.08 -3.96,-0.39 -3.96,-0.39 L -3.96,-0.39 Z"></path></g><g transform="translate(552.4561271389185 296.74377369701006) rotate(0 0.00004999999998744897 0.00005000000000165983)" stroke="none"><path fill="#1e1e1e" d="M 3.14,-3.14 Q 3.14,-3.14 3.55,-2.55 3.97,-1.97 4.18,-1.28 4.40,-0.59 4.38,0.11 4.36,0.83 4.11,1.51 3.86,2.18 3.41,2.74 2.96,3.30 2.36,3.69 1.75,4.07 1.05,4.25 0.36,4.42 -0.35,4.36 -1.07,4.30 -1.73,4.02 -2.39,3.74 -2.92,3.26 -3.46,2.78 -3.81,2.15 -4.16,1.53 -4.30,0.82 -4.43,0.11 -4.34,-0.59 -4.24,-1.30 -3.92,-1.94 -3.60,-2.59 -3.09,-3.09 -2.59,-3.60 -1.94,-3.92 -1.30,-4.24 -0.59,-4.34 0.12,-4.43 0.82,-4.30 1.53,-4.16 2.15,-3.81 2.78,-3.46 3.26,-2.92 3.74,-2.39 4.02,-1.73 4.31,-1.07 4.36,-0.35 4.42,0.36 4.25,1.05 4.07,1.75 3.69,2.36 3.30,2.96 2.74,3.41 2.18,3.86 1.51,4.11 0.83,4.36 0.11,4.38 -0.60,4.40 -1.28,4.18 -1.97,3.97 -2.55,3.55 -3.14,3.13 -3.14,3.14 -3.14,3.14 -3.47,2.71 -3.80,2.29 -4.02,1.80 -4.24,1.32 -4.33,0.79 -4.43,0.26 -4.40,-0.26 -4.36,-0.80 -4.20,-1.31 -4.04,-1.82 -3.77,-2.28 -3.49,-2.73 -3.11,-3.11 -2.73,-3.49 -2.28,-3.77 -1.82,-4.05 -1.31,-4.20 -0.80,-4.36 -0.26,-4.40 0.26,-4.43 0.79,-4.33 1.32,-4.24 1.80,-4.02 2.29,-3.80 2.71,-3.47 3.14,-3.14 3.14,-3.14 L 3.14,-3.14 Z"></path></g><g transform="translate(554.2603247851623 292.41371035797357) rotate(0 -46.18744322591725 50.33711708318779)" stroke="none"><path fill="#1e1e1e" d="M 3.93,1.09 Q 3.93,1.09 2.80,4.80 1.67,8.50 0.44,12.05 -0.77,15.60 -2.67,20.47 -4.58,25.33 -6.15,29.63 -7.72,33.92 -9.00,37.81 -10.29,41.69 -11.26,45.05 -12.22,48.40 -13.31,51.37 -14.41,54.34 -15.29,56.74 -16.17,59.14 -17.39,61.74 -18.61,64.34 -20.62,67.75 -22.63,71.17 -24.24,74.10 -25.86,77.04 -26.93,79.40 -28.01,81.75 -29.37,84.06 -30.74,86.37 -31.82,88.30 -32.89,90.22 -34.56,92.38 -36.23,94.53 -38.51,97.42 -40.78,100.31 -43.98,102.83 -47.17,105.35 -50.07,106.67 -52.96,107.99 -56.13,108.53 -59.29,109.06 -61.51,108.90 -63.73,108.74 -65.96,108.03 -68.18,107.32 -71.30,104.08 -74.41,100.85 -77.26,97.30 -80.12,93.76 -81.35,91.85 -82.59,89.94 -84.43,87.46 -86.28,84.99 -88.08,82.56 -89.88,80.12 -91.83,77.21 -93.79,74.31 -95.01,71.35 -96.24,68.39 -97.07,64.67 -97.91,60.95 -98.30,57.60 -98.68,54.25 -98.80,51.62 -98.92,48.98 -98.98,46.66 -99.03,44.35 -98.65,40.27 -98.26,36.18 -97.82,32.91 -97.38,29.64 -96.75,26.58 -96.11,23.51 -95.27,20.70 -94.43,17.89 -93.80,15.14 -93.17,12.39 -92.46,10.32 -91.75,8.24 -90.84,5.00 -89.92,1.75 -88.84,-0.86 -87.76,-3.49 -87.41,-4.56 -87.05,-5.64 -86.37,-6.55 -85.69,-7.45 -84.76,-8.09 -83.82,-8.74 -82.73,-9.05 -81.64,-9.36 -80.51,-9.30 -79.38,-9.25 -78.32,-8.83 -77.26,-8.42 -76.40,-7.69 -75.53,-6.96 -74.94,-5.99 -74.35,-5.02 -74.10,-3.92 -73.85,-2.81 -73.97,-1.69 -74.08,-0.56 -74.55,0.46 -75.02,1.49 -75.80,2.32 -76.57,3.15 -77.57,3.69 -78.57,4.22 -79.69,4.41 -80.80,4.60 -81.92,4.42 -83.04,4.25 -84.05,3.72 -85.05,3.20 -85.84,2.38 -86.62,1.56 -87.10,0.53 -87.58,-0.48 -87.71,-1.61 -87.84,-2.74 -87.60,-3.84 -87.37,-4.95 -86.79,-5.93 -86.21,-6.90 -85.35,-7.64 -84.49,-8.38 -83.44,-8.80 -82.39,-9.23 -81.26,-9.30 -80.12,-9.36 -79.03,-9.07 -77.94,-8.77 -76.99,-8.14 -76.05,-7.51 -75.36,-6.61 -74.67,-5.71 -74.30,-4.64 -73.94,-3.57 -73.93,-2.43 -73.92,-1.30 -73.92,-1.30 -73.92,-1.30 -74.79,1.35 -75.65,4.01 -76.64,5.96 -77.63,7.90 -78.16,10.17 -78.69,12.44 -79.70,15.21 -80.71,17.98 -81.24,20.06 -81.77,22.13 -82.53,24.55 -83.29,26.97 -83.82,29.25 -84.35,31.53 -84.79,34.79 -85.23,38.05 -85.46,41.18 -85.70,44.31 -85.73,46.54 -85.77,48.77 -85.77,50.99 -85.77,53.21 -85.50,55.96 -85.24,58.71 -84.59,61.75 -83.93,64.79 -82.88,67.40 -81.83,70.01 -79.96,72.71 -78.08,75.41 -76.29,78.07 -74.49,80.72 -72.50,83.90 -70.50,87.07 -68.13,90.09 -65.77,93.11 -62.84,95.11 -59.91,97.11 -57.33,96.80 -54.75,96.49 -52.63,95.55 -50.50,94.60 -48.40,92.92 -46.31,91.23 -43.55,88.25 -40.79,85.27 -39.48,83.38 -38.17,81.49 -36.84,79.70 -35.52,77.92 -34.17,75.52 -32.82,73.13 -31.17,70.25 -29.52,67.37 -27.76,63.94 -26.00,60.51 -24.70,58.24 -23.39,55.97 -22.24,53.74 -21.08,51.51 -19.84,48.95 -18.59,46.39 -17.46,43.09 -16.32,39.78 -15.12,35.81 -13.92,31.84 -12.56,27.41 -11.20,22.98 -9.62,18.06 -8.04,13.14 -6.93,9.78 -5.81,6.42 -4.87,2.66 -3.93,-1.09 -3.74,-1.54 -3.55,-2.00 -3.26,-2.39 -2.97,-2.79 -2.59,-3.11 -2.21,-3.42 -1.77,-3.64 -1.33,-3.85 -0.85,-3.96 -0.37,-4.06 0.11,-4.05 0.61,-4.03 1.08,-3.90 1.55,-3.77 1.98,-3.53 2.41,-3.29 2.77,-2.95 3.13,-2.61 3.40,-2.20 3.66,-1.79 3.82,-1.32 3.99,-0.86 4.03,-0.37 4.08,0.11 4.00,0.60 3.93,1.09 3.93,1.09 L 3.93,1.09 Z"></path></g><g transform="translate(473.4322922573393 289.88784466518086) rotate(0 0.00005000000000165983 0.00005000000000165983)" stroke="none"><path fill="#1e1e1e" d="M 3.14,-3.14 Q 3.14,-3.14 3.55,-2.55 3.97,-1.97 4.18,-1.28 4.40,-0.59 4.38,0.11 4.36,0.83 4.11,1.51 3.86,2.18 3.41,2.74 2.96,3.30 2.36,3.69 1.75,4.07 1.05,4.25 0.36,4.42 -0.35,4.36 -1.07,4.30 -1.73,4.02 -2.39,3.74 -2.92,3.26 -3.46,2.78 -3.81,2.15 -4.16,1.53 -4.30,0.82 -4.43,0.11 -4.34,-0.59 -4.24,-1.30 -3.92,-1.94 -3.60,-2.59 -3.09,-3.09 -2.59,-3.60 -1.94,-3.92 -1.30,-4.24 -0.59,-4.34 0.12,-4.43 0.82,-4.30 1.53,-4.16 2.15,-3.81 2.78,-3.46 3.26,-2.92 3.74,-2.39 4.02,-1.73 4.31,-1.07 4.36,-0.35 4.42,0.36 4.25,1.05 4.07,1.75 3.69,2.36 3.30,2.96 2.74,3.41 2.18,3.86 1.51,4.11 0.83,4.36 0.11,4.38 -0.60,4.40 -1.28,4.18 -1.97,3.97 -2.55,3.55 -3.14,3.13 -3.14,3.14 -3.14,3.14 -3.47,2.71 -3.80,2.29 -4.02,1.80 -4.24,1.32 -4.33,0.79 -4.43,0.26 -4.40,-0.26 -4.36,-0.80 -4.20,-1.31 -4.04,-1.82 -3.77,-2.28 -3.49,-2.73 -3.11,-3.11 -2.73,-3.49 -2.28,-3.77 -1.82,-4.05 -1.31,-4.20 -0.80,-4.36 -0.26,-4.40 0.26,-4.43 0.79,-4.33 1.32,-4.24 1.80,-4.02 2.29,-3.80 2.71,-3.47 3.14,-3.14 3.14,-3.14 L 3.14,-3.14 Z"></path></g><g transform="translate(521.9131876046425 405.3376602402576) rotate(0 -242.71161442840838 3.95572286766685)" stroke="none"><path fill="#f08c00" d="M -0.87,3.01 Q -0.87,3.01 -4.77,1.85 -8.66,0.69 -26.85,-4.39 -45.04,-9.47 -72.79,-14.55 -100.55,-19.63 -129.68,-22.78 -158.81,-25.92 -188.05,-27.27 -217.29,-28.62 -248.70,-28.87 -280.12,-29.13 -305.47,-28.43 -330.82,-27.74 -350.34,-26.47 -369.86,-25.21 -383.94,-23.38 -398.02,-21.55 -409.42,-20.28 -420.83,-19.02 -432.58,-18.47 -444.32,-17.93 -452.39,-17.70 -460.46,-17.47 -466.00,-17.38 -471.55,-17.28 -474.71,-17.04 -477.88,-16.81 -480.84,-16.41 -483.81,-16.01 -484.28,-15.76 -484.75,-15.51 -485.23,-15.56 -485.70,-15.61 -486.15,-15.78 -486.59,-15.94 -486.99,-16.21 -487.38,-16.48 -487.70,-16.83 -488.02,-17.19 -488.24,-17.61 -488.46,-18.03 -488.58,-18.49 -488.70,-18.95 -488.70,-19.42 -488.71,-19.90 -488.60,-20.36 -488.49,-20.83 -488.27,-21.25 -488.05,-21.67 -487.74,-22.03 -487.42,-22.39 -487.03,-22.66 -486.64,-22.94 -486.20,-23.11 -485.76,-23.28 -485.28,-23.34 -484.81,-23.40 -481.49,-21.79 -478.17,-20.19 -474.27,-18.25 -470.37,-16.31 -446.34,-10.28 -422.31,-4.25 -403.09,-0.15 -383.88,3.94 -367.84,6.19 -351.80,8.44 -331.72,9.74 -311.65,11.04 -289.96,11.62 -268.28,12.19 -247.03,12.44 -225.79,12.70 -212.86,12.82 -199.93,12.94 -192.81,12.99 -185.69,13.05 -182.18,12.93 -178.66,12.80 -175.49,12.95 -172.33,13.10 -170.66,14.54 -168.99,15.99 -168.45,19.02 -167.91,22.05 -167.69,24.83 -167.47,27.60 -167.48,30.07 -167.49,32.53 -168.35,35.21 -169.21,37.89 -170.73,39.91 -172.26,41.92 -176.60,44.51 -180.93,47.09 -181.91,47.11 -182.89,47.13 -183.82,46.84 -184.75,46.55 -185.54,45.97 -186.33,45.40 -186.89,44.60 -187.46,43.80 -187.74,42.86 -188.02,41.93 -187.99,40.95 -187.95,39.98 -187.61,39.06 -187.26,38.15 -186.65,37.39 -186.03,36.63 -185.20,36.11 -184.38,35.59 -183.43,35.36 -182.48,35.13 -181.50,35.22 -180.53,35.31 -179.64,35.70 -178.74,36.09 -178.02,36.75 -177.30,37.41 -176.82,38.26 -176.35,39.12 -176.17,40.08 -175.99,41.04 -176.13,42.00 -176.27,42.97 -176.71,43.84 -177.15,44.71 -177.85,45.40 -178.54,46.09 -179.42,46.51 -180.30,46.94 -181.27,47.07 -182.24,47.19 -183.20,47.00 -184.15,46.81 -185.00,46.32 -185.85,45.84 -186.49,45.10 -187.14,44.37 -187.52,43.47 -187.90,42.57 -187.97,41.60 -188.04,40.62 -187.80,39.68 -187.56,38.73 -187.03,37.91 -186.49,37.09 -185.73,36.48 -184.96,35.88 -184.04,35.55 -183.12,35.22 -183.12,35.22 -183.13,35.22 -181.97,34.66 -180.81,34.09 -179.12,31.85 -177.43,29.61 -177.23,26.69 -177.04,23.76 -177.86,21.27 -178.69,18.78 -182.21,18.62 -185.72,18.47 -192.85,18.44 -199.97,18.42 -212.91,18.34 -225.85,18.26 -247.13,18.07 -268.42,17.87 -290.21,17.37 -312.01,16.88 -332.31,15.67 -352.62,14.45 -368.90,12.32 -385.18,10.18 -404.55,6.26 -423.93,2.34 -448.64,-3.62 -473.35,-9.59 -479.05,-12.55 -484.75,-15.51 -485.23,-15.56 -485.70,-15.61 -486.15,-15.78 -486.59,-15.94 -486.99,-16.21 -487.38,-16.48 -487.70,-16.83 -488.02,-17.19 -488.24,-17.61 -488.46,-18.03 -488.58,-18.49 -488.70,-18.95 -488.70,-19.42 -488.71,-19.90 -488.60,-20.36 -488.49,-20.83 -488.27,-21.25 -488.05,-21.67 -487.74,-22.03 -487.42,-22.39 -487.03,-22.66 -486.64,-22.94 -486.20,-23.11 -485.76,-23.28 -485.28,-23.34 -484.81,-23.40 -484.43,-23.48 -484.04,-23.56 -481.00,-23.21 -477.96,-22.86 -474.80,-22.71 -471.64,-22.55 -466.12,-22.65 -460.61,-22.75 -452.59,-22.98 -444.57,-23.21 -432.99,-23.75 -421.42,-24.29 -410.06,-25.56 -398.71,-26.83 -384.46,-28.69 -370.21,-30.55 -350.59,-31.84 -330.97,-33.12 -305.53,-33.85 -280.08,-34.57 -248.56,-34.35 -217.04,-34.13 -187.63,-32.81 -158.22,-31.50 -128.87,-28.40 -99.52,-25.29 -71.49,-20.24 -43.46,-15.19 -25.19,-10.22 -6.93,-5.24 -3.02,-4.13 0.87,-3.01 1.22,-2.86 1.57,-2.71 1.87,-2.48 2.18,-2.26 2.41,-1.96 2.65,-1.67 2.81,-1.33 2.98,-0.98 3.05,-0.61 3.13,-0.24 3.11,0.13 3.09,0.50 2.99,0.87 2.88,1.23 2.69,1.56 2.50,1.89 2.24,2.16 1.98,2.43 1.66,2.63 1.34,2.84 0.98,2.95 0.62,3.07 0.24,3.10 -0.13,3.13 -0.50,3.07 -0.87,3.01 -0.87,3.01 L -0.87,3.01 Z"></path></g><g transform="translate(390.2432555427102 10) rotate(0 38.436502278292664 65.71402002417778)" stroke="none"><path fill="transparent" d="M 5.01,0 Q 5.01,0 4.70,4.42 4.39,8.84 4.44,11.71 4.49,14.59 4.59,16.95 4.68,19.32 5.03,22.34 5.38,25.36 6.00,27.58 6.62,29.80 8.29,31.13 9.97,32.46 12.44,33.58 14.90,34.71 17.88,34.66 20.85,34.61 23.30,34.58 25.74,34.54 28.76,34.25 31.77,33.96 34.02,33.89 36.26,33.81 38.16,31.35 40.06,28.89 42.38,27.21 44.69,25.54 46.76,24.46 48.83,23.38 49.71,23.27 50.59,23.16 51.47,23.26 52.35,23.37 53.19,23.68 54.02,23.99 54.75,24.49 55.48,25.00 56.07,25.66 56.66,26.32 57.08,27.10 57.49,27.89 57.71,28.75 57.92,29.61 57.92,30.50 57.93,31.39 57.72,32.25 57.51,33.11 57.10,33.90 56.69,34.69 56.10,35.35 55.52,36.02 54.79,36.52 54.06,37.03 53.23,37.35 52.40,37.67 49.08,38.70 45.76,39.73 43.49,40.59 41.21,41.46 39.46,42.73 37.71,44.01 36.85,46.66 36.00,49.32 34.55,46.60 33.10,43.88 35.17,41.51 37.24,39.14 41.26,37.79 45.28,36.43 50.02,35.40 54.76,34.37 57.64,33.76 60.53,33.14 62.62,32.80 64.72,32.45 67.34,33.12 69.95,33.78 71.83,35.78 73.71,37.78 74.69,42.43 75.67,47.08 76.70,55.42 77.73,63.76 78.50,73.47 79.27,83.17 79.52,91.62 79.78,100.07 79.83,106.37 79.89,112.66 79.73,117.24 79.58,121.82 79.60,124.55 79.62,127.27 78.30,130.57 76.98,133.87 76.50,134.19 76.02,134.51 75.47,134.67 74.91,134.82 74.34,134.79 73.76,134.75 73.23,134.54 72.69,134.32 72.26,133.95 71.82,133.57 71.52,133.08 71.23,132.58 71.11,132.02 70.99,131.46 71.05,130.89 71.12,130.32 71.36,129.79 71.60,129.27 72.00,128.86 72.40,128.44 72.91,128.17 73.42,127.90 73.99,127.81 74.55,127.72 75.12,127.82 75.69,127.91 76.20,128.18 76.70,128.46 77.10,128.87 77.49,129.29 77.73,129.82 77.97,130.34 78.03,130.91 78.09,131.49 77.97,132.05 77.84,132.61 77.54,133.10 77.24,133.59 76.80,133.97 76.36,134.34 75.83,134.55 75.29,134.76 74.72,134.79 74.14,134.82 73.59,134.66 73.03,134.50 72.56,134.18 72.08,133.85 71.74,133.39 71.39,132.93 71.21,132.39 71.03,131.84 71.03,131.27 71.03,130.69 71.22,130.15 71.40,129.60 71.75,129.14 72.10,128.69 72.10,128.69 72.10,128.69 72.37,127.75 72.64,126.81 73.00,124.27 73.37,121.73 73.35,117.29 73.33,112.85 73.03,106.63 72.74,100.42 72.17,92.18 71.60,83.95 70.42,74.53 69.25,65.10 67.73,57.29 66.21,49.48 64.34,46.16 62.48,42.84 60.01,43.30 57.54,43.77 53.70,45.28 49.86,46.79 46.45,48.73 43.03,50.67 39.57,52.94 36.10,55.21 33.02,56.26 29.95,57.31 27.48,56.63 25.00,55.96 23.18,52.36 21.37,48.77 21.80,46.46 22.24,44.14 23.01,41.90 23.78,39.65 25.32,37.15 26.87,34.65 29.61,32.47 32.35,30.29 35.09,28.76 37.83,27.22 40.33,26.19 42.84,25.15 45.83,24.26 48.83,23.38 49.71,23.27 50.59,23.16 51.47,23.26 52.35,23.37 53.19,23.68 54.02,23.99 54.75,24.49 55.48,24.99 56.07,25.66 56.66,26.32 57.08,27.10 57.49,27.89 57.71,28.75 57.92,29.61 57.92,30.50 57.93,31.39 57.72,32.25 57.51,33.11 57.10,33.90 56.69,34.69 56.10,35.35 55.52,36.02 54.79,36.52 54.06,37.03 53.23,37.35 52.40,37.67 51.24,37.77 50.07,37.87 49.05,39.75 48.03,41.63 46.08,43.20 44.14,44.77 41.67,45.90 39.21,47.03 36.56,47.25 33.91,47.46 31.48,47.47 29.05,47.48 26.34,47.60 23.63,47.71 21.05,47.65 18.46,47.59 16.19,47.39 13.91,47.20 11.02,46.34 8.13,45.48 5.19,43.59 2.26,41.71 0.06,39.40 -2.14,37.09 -3.16,34.76 -4.17,32.43 -4.49,29.33 -4.81,26.24 -4.75,22.78 -4.68,19.32 -4.59,16.95 -4.49,14.59 -4.44,11.71 -4.39,8.84 -4.70,4.42 -5.01,0 -4.94,-0.59 -4.86,-1.19 -4.65,-1.76 -4.43,-2.33 -4.09,-2.82 -3.75,-3.32 -3.30,-3.72 -2.84,-4.12 -2.31,-4.40 -1.77,-4.68 -1.19,-4.83 -0.60,-4.97 0.00,-4.97 0.60,-4.97 1.19,-4.83 1.77,-4.68 2.31,-4.40 2.84,-4.12 3.30,-3.72 3.75,-3.32 4.09,-2.82 4.43,-2.32 4.65,-1.76 4.86,-1.19 4.94,-0.59 5.01,0.00 5.01,0.00 L 5.01,0 Z"></path></g></svg>